<?xml version="1.0" standalone="no"?>
<!DOCTYPE svg PUBLIC "-//W3C//DTD SVG 20010904//EN"
 "http://www.w3.org/TR/2001/REC-SVG-20010904/DTD/svg10.dtd">
<svg version="1.0" xmlns="http://www.w3.org/2000/svg"
 width="700.000000pt" height="700.000000pt" viewBox="0 0 700.000000 700.000000"
 preserveAspectRatio="xMidYMid meet">
<metadata>
Created by potrace 1.11, written by Peter Selinger 2001-2013
</metadata>
<g transform="translate(0.000000,700.000000) scale(0.100000,-0.100000)"
fill="#000000" stroke="none">
<path d="M0 3500 l0 -3500 3500 0 3500 0 0 1380 c0 759 -2 1380 -5 1380 -3 0
-52 -25 -110 -55 l-103 -56 -120 158 c-335 442 -750 864 -1132 1153 -672 507
-1367 780 -2170 851 -191 17 -630 6 -830 -20 -677 -89 -1301 -298 -1950 -654
-30 -16 -50 -25 -45 -19 15 15 320 184 470 259 1078 542 2146 691 3150 442
681 -169 1322 -511 1919 -1025 285 -245 588 -568 808 -863 56 -75 105 -140
110 -146 4 -5 8 941 8 2103 l0 2112 -3500 0 -3500 0 0 -3500z m3325 859 c439
-54 796 -365 913 -797 23 -87 26 -115 26 -267 0 -152 -3 -180 -27 -268 -45
-167 -132 -328 -248 -455 l-46 -51 -8 592 c-4 326 -9 594 -11 596 -2 3 -48
-13 -102 -34 -53 -20 -161 -58 -238 -84 l-142 -46 -22 -68 c-12 -38 -19 -71
-16 -75 5 -5 163 25 234 44 l22 6 0 -491 0 -491 111 0 c68 0 108 -4 104 -10
-3 -5 -40 -32 -83 -61 -42 -28 -68 -48 -57 -45 11 3 61 15 110 26 264 62 626
195 894 329 398 200 800 477 1073 739 l66 63 184 -252 c100 -139 181 -255 178
-258 -2 -3 -63 -44 -135 -91 -643 -423 -1330 -691 -2030 -794 -396 -59 -873
-62 -1295 -10 -644 80 -1349 318 -1898 641 -50 30 -92 57 -92 59 0 2 55 -23
122 -57 446 -223 953 -383 1423 -448 149 -20 409 -41 508 -41 l52 1 -88 33
c-148 57 -277 145 -394 270 -491 526 -335 1371 312 1694 93 46 211 82 315 97
122 17 174 17 285 4z"/>
<path d="M2904 3696 c-84 -19 -158 -59 -221 -118 -56 -53 -61 -71 -42 -127 19
-55 40 -57 115 -12 119 72 218 75 283 9 73 -75 68 -236 -14 -397 -47 -93 -115
-187 -242 -331 -105 -120 -155 -202 -135 -222 17 -17 250 -30 457 -26 174 3
216 7 247 22 50 24 108 112 108 164 0 16 -21 17 -245 14 -135 -2 -245 0 -245
4 0 3 46 54 103 113 149 156 250 311 283 435 33 123 6 274 -66 365 -78 98
-233 142 -386 107z"/>
</g>
</svg>
