<svg version="1.2" xmlns="http://www.w3.org/2000/svg" viewBox="0 0 472 196.9" overflow="scroll">
	<g fill="#A1A1A4">
		<path d="M180.2 190.2c.4-1 1.5-4.4 1.9-6 .1-.4.1-.6.1-.7 0-.2-.1-.3-.7-.3-.1 0-.1-.1-.1-.1 0-.1.1-.1.2-.1h2.3c.1 0 .2 0 .2.1s0 .1-.1.1c0 0-.3 0-.4.1-.4.1-.6.6-.8 1.3-.5 1.5-1.8 5.3-2.3 6.6-.3.9-.4 1-.5 1-.1 0-.2-.2-.4-.6l-2.4-6.5c-.4 1-2.1 5.4-2.5 6.5-.2.5-.3.6-.4.6-.1 0-.2-.1-.5-.9l-2.2-7.1c-.2-.6-.3-.8-.6-.9-.2-.1-.5-.1-.6-.1-.1 0-.1 0-.1-.1s.1-.1.2-.1h2.8c.2 0 .2 0 .2.1s-.1.1-.1.1c-.1 0-.3 0-.4.1-.1 0-.2.1-.2.3 0 .2.1.6.2 1.1.2.8 1.5 5.1 1.6 5.6l2.6-6.7c.2-.5.3-.5.3-.5.1 0 .2.2.3.6l2.4 6.5zM194.9 190.2c.4-1 1.5-4.4 1.9-6 .1-.4.1-.6.1-.7 0-.2-.1-.3-.7-.3-.1 0-.1-.1-.1-.1 0-.1.1-.1.2-.1h2.3c.1 0 .2 0 .2.1s0 .1-.1.1c0 0-.3 0-.4.1-.4.1-.6.6-.8 1.3-.5 1.5-1.8 5.3-2.3 6.6-.3.9-.4 1-.5 1-.1 0-.2-.2-.4-.6l-2.4-6.5c-.4 1-2.1 5.4-2.5 6.5-.2.5-.3.6-.4.6-.1 0-.2-.1-.5-.9l-2.2-7.1c-.2-.6-.3-.8-.6-.9-.2-.1-.5-.1-.6-.1-.1 0-.1 0-.1-.1s.1-.1.2-.1h2.8c.2 0 .2 0 .2.1s-.1.1-.1.1c-.1 0-.3 0-.4.1-.1 0-.2.1-.2.3 0 .2.1.6.2 1.1.2.8 1.5 5.1 1.6 5.6l2.6-6.7c.2-.5.3-.5.3-.5.1 0 .2.2.3.6l2.4 6.5zM209.7 190.2c.4-1 1.5-4.4 1.9-6 .1-.4.1-.6.1-.7 0-.2-.1-.3-.7-.3-.1 0-.1-.1-.1-.1 0-.1.1-.1.2-.1h2.3c.1 0 .2 0 .2.1s0 .1-.1.1c0 0-.3 0-.4.1-.4.1-.6.6-.8 1.3-.5 1.5-1.8 5.3-2.3 6.6-.3.9-.4 1-.5 1-.1 0-.2-.2-.4-.6l-2.4-6.5c-.4 1-2.1 5.4-2.5 6.5-.2.5-.3.6-.4.6-.1 0-.2-.1-.5-.9l-2.2-7.1c-.2-.6-.3-.8-.6-.9-.2-.1-.5-.1-.6-.1-.1 0-.1 0-.1-.1s.1-.1.2-.1h2.8c.2 0 .2 0 .2.1s-.1.1-.1.1c-.1 0-.3 0-.4.1-.1 0-.2.1-.2.3 0 .2.1.6.2 1.1.2.8 1.5 5.1 1.6 5.6l2.6-6.7c.2-.5.3-.5.3-.5.1 0 .2.2.3.6l2.4 6.5zM213.9 191.2c0-.3.2-.8.8-.8.4 0 .8.3.8.7 0 .4-.3.8-.8.8-.6 0-.8-.4-.8-.7zM219.4 190.3c0 1 .1 1.3.5 1.4.2.1.5.1.6.1.1 0 .1 0 .1.1s-.1.1-.2.1h-2.5c-.1 0-.2 0-.2-.1s0-.1.1-.1.3 0 .5-.1c.3-.1.4-.4.4-1.5v-6.8c0-.5.1-.6.2-.6s.4.2.5.4c.2.2 2 2.1 3.9 4.1 1.2 1.3 2.5 2.7 2.9 3.1l-.1-6c0-.8-.1-1-.5-1.1-.2 0-.5-.1-.6-.1-.1 0-.1-.1-.1-.1 0-.1.1-.1.2-.1H227.5c.1 0 .2 0 .2.1l-.1.1h-.3c-.4.1-.4.3-.4 1v7c0 .8 0 .9-.1.9s-.3-.1-.9-.7l-3.2-3.2c-1.4-1.5-2.8-3-3.2-3.4l-.1 5.5zM230.7 190.9c-1.2-1-1.5-2.4-1.5-3.5 0-.8.3-2.2 1.4-3.3.7-.7 1.9-1.3 3.8-1.3.5 0 1.2 0 1.8.1.5.1.9.2 1.3.2.1 0 .2.1.2.1 0 .1 0 .2-.1.7v1.2c0 .2-.1.3-.1.3-.1 0-.1-.1-.1-.3 0-.5-.2-.9-.5-1.2-.4-.4-1.3-.7-2.4-.7-1.6 0-2.3.4-2.8.8-.9.8-1.1 1.9-1.1 3.1 0 2.3 1.8 4.3 4.4 4.3.9 0 1.5-.1 2-.6.3-.3.4-.8.5-1 0-.1 0-.2.1-.2s.1.1.1.2-.2 1.1-.3 1.5c-.1.2-.1.3-.3.4-.5.2-1.4.3-2.2.3-1.9.1-3.2-.3-4.2-1.1zM241.9 189.3c0 1.9 0 2.7-.4 3.5-.3.6-.8 1.2-1.8 1.8-.2.1-.4.2-.5.3h-.1s-.1 0-.1-.1 0-.1.2-.2.3-.2.4-.3c.8-.8 1.2-1.4 1.2-4.5v-3.4-2.6c0-.4-.1-.6-.5-.7h-.4l-.1-.1c0-.1.1-.1.2-.1H242.6c.1 0 .2 0 .2.1l-.1.1h-.3c-.3.1-.4.2-.4.7v5.5zM245.9 186.4v-2.6c0-.4-.1-.6-.5-.7h-.4l-.1-.1c0-.1.1-.1.2-.1h4.6c.2 0 .4 0 .6-.1.1 0 .1-.1.2-.1s.1.1.1.1c0 .1-.1.2-.1.6 0 .1 0 .6-.1.8 0 .1-.1.1-.1.1-.1 0-.1-.1-.1-.1 0-.1 0-.3-.1-.4-.1-.2-.4-.3-.8-.3h-2c-.1 0-.1 0-.1.1v3.3c0 .1 0 .1.1.1h2.3c.3 0 .5-.1.6-.2.1-.1.1-.1.2-.1s.1 0 .1.1-.1.3-.1.7v.8c0 .1 0 .2-.1.2s-.1-.1-.1-.1c0-.1 0-.3-.1-.4-.1-.2-.3-.3-.6-.4h-2c-.1 0-.1 0-.1.1v1c0 1.2 0 2.1.1 2.6 0 .3.1.6.4.6.2 0 .4.1.6.1.1 0 .1.1.1.1 0 .1-.1.1-.2.1h-2.7c-.1 0-.2 0-.2-.1 0 0 0-.1.1-.1s.3 0 .4-.1c.2 0 .3-.3.3-.6.1-.5.1-1.4.1-2.6v-2.3zM253.7 190.9c-1.2-1-1.5-2.4-1.5-3.5 0-.8.3-2.2 1.4-3.3.7-.7 1.9-1.3 3.8-1.3.5 0 1.2 0 1.8.1.5.1.9.2 1.3.2.1 0 .2.1.2.1 0 .1 0 .2-.1.7v1.2c0 .2-.1.3-.1.3-.1 0-.1-.1-.1-.3 0-.5-.2-.9-.5-1.2-.4-.4-1.3-.7-2.4-.7-1.6 0-2.3.4-2.8.8-.9.8-1.1 1.9-1.1 3.1 0 2.3 1.8 4.3 4.4 4.3.9 0 1.5-.1 2-.6.3-.3.4-.8.5-1 0-.1 0-.2.1-.2s.1.1.1.2-.2 1.1-.3 1.5c-.1.2-.1.3-.3.4-.5.2-1.4.3-2.2.3-2 .1-3.2-.3-4.2-1.1zM264.8 189.3c0 1.9 0 2.7-.4 3.5-.3.6-.8 1.2-1.8 1.8-.2.1-.4.2-.5.3h-.1s-.1 0-.1-.1 0-.1.2-.2.3-.2.4-.3c.8-.8 1.2-1.4 1.2-4.5v-3.4-2.6c0-.4-.1-.6-.5-.7h-.4l-.1-.1c0-.1.1-.1.2-.1H265.5c.1 0 .2 0 .2.1l-.1.1h-.3c-.3.1-.4.2-.4.7v5.5zM267.8 191.2c0-.3.2-.8.8-.8.4 0 .8.3.8.7 0 .4-.3.8-.8.8-.6 0-.8-.4-.8-.7zM276 182.8c2.8 0 4.9 1.7 4.9 4.5 0 2.7-2 4.9-4.9 4.9-3.4 0-4.8-2.5-4.8-4.7 0-2 1.4-4.7 4.8-4.7zm.3 8.8c1.1 0 3.3-.6 3.3-4 0-2.9-1.7-4.4-3.7-4.4-2.1 0-3.5 1.3-3.5 3.9 0 2.8 1.7 4.5 3.9 4.5zM283.8 186.4v-2.6c0-.4-.1-.6-.5-.7h-.4l-.1-.1c0-.1.1-.1.2-.1h3c.8 0 1.7.1 2.3.5.3.2.9.8.9 1.6 0 .9-.4 1.7-1.5 2.7 1 1.3 1.9 2.3 2.6 3.1.7.7 1.1.8 1.4.8h.4c.1 0 .1.1.1.1 0 .1-.1.1-.3.1h-.9c-.7 0-1-.1-1.3-.2-.5-.3-1-.9-1.7-1.8-.5-.6-1.1-1.4-1.3-1.7-.1-.1-.1-.1-.2-.1h-1.6c-.1 0-.1 0-.1.1v.3c0 1.2 0 2.1.1 2.6 0 .3.1.6.5.6.2 0 .4.1.5.1.1 0 .1.1.1.1 0 .1-.1.1-.2.1h-1.5-1.2c-.1 0-.2 0-.2-.1 0 0 0-.1.1-.1s.3 0 .4-.1c.2-.1.3-.3.3-.6.1-.5.1-1.4.1-2.6v-2zm1.1 1c0 .1 0 .1.1.2.2.1.8.2 1.4.2.3 0 .6 0 .9-.2.4-.3.7-.9.7-1.8 0-1.5-.8-2.3-2.1-2.3-.4 0-.8 0-.9.1-.1 0-.1.1-.1.1v3.7zM299.2 188.9c0-1 0-1.1-.5-1.2h-.4l-.1-.1c0-.1.1-.1.2-.1h2.7c.1 0 .2 0 .2.1l-.1.1h-.3c-.3.1-.4.2-.5.7v2.5c0 .5 0 .6-.2.6-.8.4-1.9.5-2.6.5-.9 0-2.7-.1-4.1-1.3-.8-.6-1.5-1.9-1.5-3.4 0-1.9 1-3.3 2.1-3.9 1.1-.7 2.3-.8 3.3-.8.8 0 1.7.1 1.9.2.3.1.7.1 1 .1.1 0 .2.1.2.1 0 .2-.1.5-.1 1.7 0 .2-.1.3-.1.3-.1 0-.1-.1-.1-.2 0-.2-.1-.5-.3-.8-.3-.4-1.2-.9-2.8-.9-.7 0-1.6.1-2.6.8-.7.5-1.2 1.6-1.2 3 0 1.7.9 2.9 1.3 3.3 1 .9 2 1.2 3.2 1.2.4 0 1 0 1.3-.2.2-.1.3-.1.3-.4v-1.9z"/>
	</g>
	<g fill="#A1A1A4">
		<path d="M94.3 130.1c0 2 .3 2.6.9 2.8.5.1 1 .1 1.2.1.1 0 .2 0 .2.1s-.1.2-.4.2c-1.4 0-2.3-.1-2.5-.1-.2 0-1.2.1-2.3.1-.2 0-.4 0-.4-.2 0-.1.1-.1.2-.1.2 0 .6 0 1-.1.6-.2.7-.9.7-3v-13.8c0-.9.1-1.2.3-1.2.2 0 .6.5.8.8.4.4 3.9 4.3 7.6 8.2 2.4 2.5 5 5.5 5.8 6.3l-.3-12.2c0-1.6-.2-2.1-.9-2.3-.4-.1-1-.1-1.2-.1-.2 0-.2-.1-.2-.2s.2-.2.5-.2c1.1 0 2.2.1 2.5.1.3 0 1.1-.1 2-.1.3 0 .4 0 .4.2 0 .1-.1.2-.3.2-.1 0-.3 0-.6.1-.8.2-.9.7-.9 2.1v14.1c0 1.6 0 1.7-.2 1.7s-.5-.3-1.8-1.5c-.3-.2-3.7-3.8-6.3-6.5-2.8-3-5.5-6-6.3-6.9l.5 11.4zM118.7 115.9c.3-.8.4-.9.5-.9.1 0 .2.1.5.9.4.9 4.1 10.8 5.6 14.5.9 2.1 1.6 2.5 2.1 2.7.4.1.7.1 1 .1.1 0 .2 0 .2.1s-.2.2-.5.2h-3.8c-.5 0-.7 0-.7-.2 0-.1.1-.1.2-.2.1 0 .3-.3.1-.6l-2.2-5.9c0-.1-.1-.1-.2-.1h-5.2c-.1 0-.2.1-.2.2l-1.4 4.2c-.2.6-.3 1.2-.3 1.6 0 .5.5.7.9.7h.2c.2 0 .2 0 .2.1s-.1.2-.4.2c-.6 0-1.6-.1-1.9-.1-.3 0-1.6.1-2.7.1-.3 0-.5 0-.5-.2 0-.1.1-.1.2-.1h.7c1.1-.1 1.6-1.1 2-2.3l5.6-15zm2.5 9.6c.1 0 .1-.1.1-.2l-2.3-6.5c-.1-.4-.2-.4-.4 0l-2.1 6.5c0 .1 0 .2.1.2h4.6zM135.1 126.4c0 2.3 0 4.2.1 5.2.1.7.2 1.2.9 1.3.3 0 .9.1 1.1.1.1 0 .2.1.2.1 0 .1-.1.2-.4.2-1.3 0-2.8-.1-3-.1-.1 0-1.6.1-2.4.1-.3 0-.4 0-.4-.2 0-.1 0-.1.2-.1s.5 0 .7-.1c.5-.1.6-.6.7-1.3.1-1 .1-2.9.1-5.2v-10.2h-3.6c-1.5 0-2.1.2-2.4.8-.3.4-.3.6-.4.7-.1.2-.1.2-.2.2s-.1-.1-.1-.2c0-.2.5-2.3.5-2.5 0-.1.1-.5.2-.5.2 0 .4.2 1.1.3.7.1 1.6.1 1.9.1h9c.8 0 1.3 0 1.7-.1.4 0 .6-.1.7-.1.1 0 .1.1.1.3 0 .7-.1 2.4-.1 2.6 0 .2-.1.3-.2.3s-.2-.1-.2-.4v-.3c-.1-.7-.6-1.3-3-1.3h-3v10.3zM147.3 126.4c0 2.3 0 4.2.1 5.2.1.7.2 1.2.9 1.3.3 0 .9.1 1.1.1.1 0 .2.1.2.1 0 .1-.1.2-.4.2-1.3 0-2.8-.1-3-.1-.1 0-1.6.1-2.4.1-.3 0-.4 0-.4-.2 0-.1 0-.1.2-.1s.5 0 .7-.1c.5-.1.6-.6.7-1.3.1-1 .1-2.9.1-5.2v-4.2-5.2c0-.8-.3-1.2-.8-1.3-.3-.1-.6-.1-.7-.1-.1 0-.2 0-.2-.1s.1-.2.4-.2c.8 0 2.3.1 2.4.1.1 0 1.6-.1 2.4-.1.3 0 .4 0 .4.2 0 .1-.1.1-.2.1-.2 0-.3 0-.6.1-.6.1-.8.5-.9 1.4v9.3zM160.3 114.9c5.4 0 9.4 3.4 9.4 9 0 5.4-3.8 9.8-9.6 9.8-6.6 0-9.3-5.1-9.3-9.4.1-3.9 2.9-9.4 9.5-9.4zm.5 17.9c2.2 0 6.6-1.2 6.6-8.2 0-5.8-3.5-8.9-7.3-8.9-4 0-7 2.6-7 7.9 0 5.6 3.4 9.2 7.7 9.2zM174.5 130.1c0 2 .3 2.6.9 2.8.5.1 1 .1 1.2.1.1 0 .2 0 .2.1s-.1.2-.4.2c-1.4 0-2.3-.1-2.5-.1-.2 0-1.2.1-2.3.1-.2 0-.4 0-.4-.2 0-.1.1-.1.2-.1.2 0 .6 0 1-.1.6-.2.7-.9.7-3v-13.8c0-.9.1-1.2.3-1.2.2 0 .6.5.8.8.4.4 3.9 4.3 7.6 8.2 2.4 2.5 5 5.5 5.8 6.3l-.3-12.2c0-1.6-.2-2.1-.9-2.3-.4-.1-1-.1-1.2-.1-.2 0-.2-.1-.2-.2s.2-.2.5-.2c1.1 0 2.2.1 2.5.1.3 0 1.1-.1 2-.1.3 0 .4 0 .4.2 0 .1-.1.2-.3.2-.1 0-.3 0-.6.1-.8.2-.9.7-.9 2.1v14.1c0 1.6 0 1.7-.2 1.7s-.5-.3-1.8-1.5c-.3-.2-3.7-3.8-6.3-6.5-2.8-3-5.5-6-6.3-6.9l.5 11.4zM198.9 115.9c.3-.8.4-.9.5-.9.1 0 .2.1.5.9.4.9 4.1 10.8 5.6 14.5.9 2.1 1.6 2.5 2.1 2.7.4.1.7.1 1 .1.1 0 .2 0 .2.1s-.2.2-.5.2h-3.8c-.5 0-.7 0-.7-.2 0-.1.1-.1.2-.2.1 0 .3-.3.1-.6l-2.2-5.9c0-.1-.1-.1-.2-.1h-5.2c-.1 0-.2.1-.2.2l-1.4 4.2c-.2.6-.3 1.2-.3 1.6 0 .5.5.7.9.7h.2c.2 0 .2 0 .2.1s-.1.2-.4.2c-.6 0-1.6-.1-1.9-.1-.3 0-1.6.1-2.7.1-.3 0-.5 0-.5-.2 0-.1.1-.1.2-.1h.7c1.1-.1 1.6-1.1 2-2.3l5.6-15zm2.5 9.6c.1 0 .1-.1.1-.2l-2.3-6.5c-.1-.4-.2-.4-.4 0l-2.1 6.5c0 .1 0 .2.1.2h4.6zM213.7 126.5c0 3.5.1 5.1.5 5.5.4.4 1 .6 2.9.6 1.3 0 2.3 0 2.9-.7.3-.4.6-1 .6-1.4 0-.2.1-.3.2-.3s.1.1.1.4c0 .3-.2 1.7-.4 2.4-.2.6-.2.6-1.5.6-1.7 0-3 0-4-.1-1 0-1.8-.1-2.4-.1h-2.4c-.3 0-.4 0-.4-.2 0-.1 0-.1.2-.1s.5 0 .7-.1c.5-.1.6-.6.7-1.3.1-1 .1-2.9.1-5.2v-4.2-5.2c0-.8-.2-1.2-1-1.4-.2 0-.6-.1-.8-.1-.1 0-.2 0-.2-.1s.1-.2.4-.2c1.1 0 2.6.1 2.7.1.1 0 1.9-.1 2.6-.1.3 0 .4 0 .4.2 0 .1-.1.1-.2.1-.2 0-.5 0-.8.1-.7.1-.9.5-.9 1.4v9.4zM231.5 131.1c-2.3-2.1-2.9-4.8-2.9-7.1 0-1.6.6-4.4 2.7-6.6 1.4-1.4 3.6-2.6 7.3-2.6 1 0 2.3.1 3.5.3.9.2 1.7.3 2.4.4.3 0 .3.1.3.3 0 .2-.1.5-.1 1.3s0 2.1-.1 2.5c0 .4-.1.5-.2.5-.2 0-.2-.2-.2-.5 0-.9-.4-1.9-1-2.4-.8-.7-2.7-1.4-4.8-1.4-3.2 0-4.7.9-5.5 1.8-1.8 1.7-2.2 3.8-2.2 6.3 0 4.6 3.5 8.8 8.7 8.8 1.8 0 3.2-.2 4.2-1.2.5-.5.8-1.6.9-2 0-.3.1-.4.2-.4s.2.2.2.4-.3 2.3-.5 3.1c-.1.5-.2.5-.6.7-1 .4-2.8.6-4.3.6-3.7-.2-6.1-1.1-8-2.8zM255.9 114.9c5.4 0 9.4 3.4 9.4 9 0 5.4-3.8 9.8-9.6 9.8-6.6 0-9.3-5.1-9.3-9.4 0-3.9 2.9-9.4 9.5-9.4zm.5 17.9c2.2 0 6.6-1.2 6.6-8.2 0-5.8-3.5-8.9-7.3-8.9-4 0-7 2.6-7 7.9 0 5.6 3.4 9.2 7.7 9.2zM268 122.2c0-3.7 0-4.4-.1-5.2 0-.8-.2-1.2-1-1.4-.2 0-.6-.1-.8-.1-.1 0-.2 0-.2-.1s.1-.2.4-.2c1.1 0 2.5.1 2.8.1.2 0 1.7-.1 2.4-.1.3 0 .4 0 .4.2 0 .1-.1.1-.2.1-.2 0-.3 0-.6.1-.6.1-.8.5-.9 1.4v8.6c0 3.5.8 4.9 1.8 5.9 1.2 1.1 2.3 1.3 3.6 1.3 1.5 0 2.9-.7 3.8-1.7 1.1-1.4 1.4-3.4 1.4-5.9v-3-5.2c0-.8-.2-1.2-1-1.4-.2 0-.6-.1-.8-.1-.1 0-.2 0-.2-.1s.1-.2.4-.2c1.1 0 2.4.1 2.5.1.2 0 1.3-.1 2-.1.3 0 .4 0 .4.2 0 .1-.1.1-.2.1-.2 0-.3 0-.6.1-.6.1-.8.5-.9 1.4V124.8c0 2.6-.3 5.5-2.2 7.2-1.7 1.5-3.5 1.8-4.9 1.8-.8 0-3.2-.1-4.9-1.7-1.2-1.1-2.1-2.8-2.1-6.3v-3.6zM288 130.1c0 2 .3 2.6.9 2.8.5.1 1 .1 1.2.1.1 0 .2 0 .2.1s-.1.2-.4.2c-1.4 0-2.3-.1-2.5-.1s-1.2.1-2.3.1c-.2 0-.4 0-.4-.2 0-.1.1-.1.2-.1.2 0 .6 0 1-.1.6-.2.7-.9.7-3v-13.8c0-.9.1-1.2.3-1.2s.6.5.8.8c.4.4 3.9 4.3 7.6 8.2 2.4 2.5 5 5.5 5.8 6.3l-.3-12.2c0-1.6-.2-2.1-.9-2.3-.4-.1-1-.1-1.2-.1-.2 0-.2-.1-.2-.2s.2-.2.5-.2c1.1 0 2.2.1 2.5.1.3 0 1.1-.1 2-.1.3 0 .4 0 .4.2 0 .1-.1.2-.3.2-.1 0-.3 0-.6.1-.8.2-.9.7-.9 2.1v14.1c0 1.6 0 1.7-.2 1.7s-.5-.3-1.8-1.5c-.3-.2-3.7-3.8-6.3-6.5-2.8-3-5.5-6-6.3-6.9l.5 11.4zM308.4 131.1c-2.3-2.1-2.9-4.8-2.9-7.1 0-1.6.6-4.4 2.7-6.6 1.4-1.4 3.6-2.6 7.3-2.6 1 0 2.3.1 3.5.3.9.2 1.7.3 2.4.4.3 0 .3.1.3.3 0 .2-.1.5-.1 1.3s0 2.1-.1 2.5c0 .4-.1.5-.2.5-.2 0-.2-.2-.2-.5 0-.9-.4-1.9-1-2.4-.8-.7-2.7-1.4-4.8-1.4-3.2 0-4.7.9-5.5 1.8-1.8 1.7-2.2 3.8-2.2 6.3 0 4.6 3.5 8.8 8.7 8.8 1.8 0 3.2-.2 4.2-1.2.5-.5.8-1.6.9-2 0-.3.1-.4.2-.4s.2.2.2.4-.3 2.3-.5 3.1c-.1.5-.2.5-.6.7-1 .4-2.8.6-4.3.6-3.7-.2-6.1-1.1-8-2.8zM327.9 126.4c0 2.3 0 4.2.1 5.2.1.7.2 1.2.9 1.3.3 0 .9.1 1.1.1.1 0 .2.1.2.1 0 .1-.1.2-.4.2-1.3 0-2.8-.1-3-.1-.1 0-1.6.1-2.4.1-.3 0-.4 0-.4-.2 0-.1 0-.1.2-.1s.5 0 .7-.1c.5-.1.6-.6.7-1.3.1-1 .1-2.9.1-5.2v-4.2-5.2c0-.8-.3-1.2-.8-1.3-.3-.1-.6-.1-.7-.1-.1 0-.2 0-.2-.1s.1-.2.4-.2c.8 0 2.3.1 2.4.1.1 0 1.6-.1 2.4-.1.3 0 .4 0 .4.2 0 .1-.1.1-.2.1-.2 0-.3 0-.6.1-.6.1-.8.5-.9 1.4v9.3zM336.5 126.5c0 3.5.1 5.1.5 5.5.4.4 1 .6 2.9.6 1.3 0 2.3 0 2.9-.7.3-.4.6-1 .6-1.4 0-.2.1-.3.2-.3s.1.1.1.4c0 .3-.2 1.7-.4 2.4-.2.6-.2.6-1.5.6-1.7 0-3 0-4-.1-1 0-1.8-.1-2.4-.1H333c-.3 0-.4 0-.4-.2 0-.1 0-.1.2-.1s.5 0 .7-.1c.5-.1.6-.6.7-1.3.1-1 .1-2.9.1-5.2v-4.2-5.2c0-.8-.2-1.2-1-1.4-.2 0-.6-.1-.8-.1-.1 0-.2 0-.2-.1s.1-.2.4-.2c1.1 0 2.6.1 2.7.1.1 0 1.9-.1 2.6-.1.3 0 .4 0 .4.2 0 .1-.1.1-.2.1-.2 0-.5 0-.8.1-.7.1-.9.5-.9 1.4-.1.8-.1 1.4-.1 5.2v4.2zM360.8 114.9c5.4 0 9.4 3.4 9.4 9 0 5.4-3.8 9.8-9.6 9.8-6.6 0-9.3-5.1-9.3-9.4.1-3.9 2.9-9.4 9.5-9.4zm.5 17.9c2.2 0 6.6-1.2 6.6-8.2 0-5.8-3.5-8.9-7.3-8.9-4 0-7 2.6-7 7.9 0 5.6 3.4 9.2 7.7 9.2zM373.9 122.2V117c0-.8-.2-1.2-1-1.4-.2 0-.6-.1-.8-.1-.1 0-.2 0-.2-.1s.1-.2.4-.2H380.9c.5 0 .8 0 1.1-.1.1 0 .2-.1.3-.1.1 0 .1.1.1.2 0 .2-.1.5-.2 1.1 0 .2-.1 1.3-.1 1.6 0 .1-.1.3-.2.3s-.2-.1-.2-.3c0-.2-.1-.6-.2-.9-.1-.3-.7-.7-1.6-.8l-3.7-.1c-.1 0-.2.1-.2.3v6.6c0 .1 0 .2.2.2h4.2c.6 0 .9-.1 1.1-.4.1-.1.2-.2.3-.2.1 0 .1.1.1.2s-.1.6-.2 1.3c0 .5-.1 1.4-.1 1.6 0 .2 0 .5-.2.5-.1 0-.2-.1-.2-.2 0-.2 0-.6-.1-.9-.1-.3-.5-.8-1.2-.9-.6-.1-3.2-.1-3.6-.1-.1 0-.2 0-.2.2v2c0 2.3 0 4.2.1 5.2.1.7.2 1.2.9 1.3.3 0 .9.1 1.1.1.1 0 .2.1.2.1 0 .1-.1.2-.4.2-1.3 0-2.8-.1-3-.1-.1 0-1.6.1-2.4.1-.3 0-.4 0-.4-.2 0-.1 0-.1.2-.1s.5 0 .7-.1c.5-.1.6-.6.7-1.3.1-1 .1-2.9.1-5.2v-4.1zM7.6 156c0 3.9 0 5.4-.7 7.1-.5 1.2-1.6 2.3-3.5 3.7-.3.2-.7.5-.9.6h-.2c-.1 0-.2 0-.2-.1s.1-.2.3-.4c.3-.2.6-.5.8-.7 1.6-1.6 2.3-2.9 2.3-9v-6.9-5.2c0-.8-.2-1.2-1-1.4-.2 0-.6-.1-.8-.1-.1 0-.2 0-.2-.1s.1-.2.4-.2c1.1 0 2.6.1 2.7.1.1 0 1.6-.1 2.4-.1.3 0 .4 0 .4.2 0 .1-.1.1-.2.1-.2 0-.3 0-.6.1-.6.1-.8.5-.9 1.4V156zM13.1 150.2V145c0-.8-.2-1.2-1-1.4-.2 0-.6-.1-.8-.1-.1 0-.2 0-.2-.1s.1-.2.4-.2c1.1 0 2.5.1 2.8.1.2 0 1.7-.1 2.4-.1.3 0 .4 0 .4.2 0 .1-.1.1-.2.1-.2 0-.3 0-.6.1-.6.1-.8.5-.9 1.4v8.6c0 3.5.8 4.9 1.8 5.9 1.2 1.1 2.3 1.3 3.6 1.3 1.5 0 2.9-.7 3.8-1.7 1.1-1.4 1.4-3.4 1.4-5.9v-3-5.2c0-.8-.2-1.2-1-1.4-.2 0-.6-.1-.8-.1-.1 0-.2 0-.2-.1s.1-.2.4-.2c1.1 0 2.4.1 2.5.1.2 0 1.3-.1 2-.1.3 0 .4 0 .4.2 0 .1-.1.1-.2.1-.2 0-.3 0-.6.1-.6.1-.8.5-.9 1.4V152.8c0 2.6-.3 5.5-2.2 7.2-1.7 1.5-3.5 1.8-4.9 1.8-.8 0-3.2-.1-4.9-1.7-1.2-1.1-2.1-2.8-2.1-6.3v-3.6zM39.7 158.5c1.4-3.2 4.6-11.6 5.1-13.3.1-.4.2-.7.2-.9 0-.2-.1-.4-.3-.6-.3-.1-.6-.1-.9-.1-.1 0-.3 0-.3-.1s.1-.2.5-.2c1 0 2.1.1 2.4.1.1 0 1.2-.1 1.9-.1.3 0 .4 0 .4.2 0 .1-.1.2-.3.2-.2 0-.7 0-1.2.3-.3.2-.7.6-1.3 2.3-.3.7-1.5 3.6-2.7 6.5-1.5 3.5-2.5 6.1-3.1 7.3-.7 1.4-.8 1.8-1 1.8-.3 0-.4-.3-.9-1.5l-5.9-14.7c-.5-1.3-.9-1.6-1.7-1.8-.4-.1-.8-.1-.9-.1-.1 0-.2-.1-.2-.2s.2-.2.6-.2c1.2 0 2.5.1 2.8.1.2 0 1.3-.1 2.2-.1.4 0 .6 0 .6.2 0 .1-.1.2-.2.2-.3 0-.7 0-.9.1-.3.1-.3.3-.3.5 0 .3.3 1.1.6 2l4.8 12.1zM51.9 150.2V145c0-.8-.2-1.2-1-1.4-.2 0-.6-.1-.8-.1-.1 0-.2 0-.2-.1s.1-.2.4-.2h8.2c.5 0 .8-.1 1-.1.1 0 .2-.1.3-.1.1 0 .1.1.1.2 0 .2-.1.5-.2 1.1 0 .2-.1 1.3-.1 1.6 0 .1-.1.3-.2.3s-.2-.1-.2-.3c0-.2 0-.6-.1-.9-.2-.4-.4-.7-1.7-.8-.4 0-3-.1-3.3-.1-.1 0-.1.1-.1.2v6.6c0 .2 0 .2.1.2h3.8c.6 0 .9-.1 1.1-.3.2-.2.3-.3.4-.3.1 0 .1 0 .1.2 0 .1-.1.6-.2 1.3 0 .5-.1 1.4-.1 1.5 0 .2 0 .5-.2.5-.1 0-.2-.1-.2-.2 0-.2 0-.5-.1-.8-.1-.3-.3-.7-1.2-.8-.6-.1-3-.1-3.4-.1-.1 0-.2.1-.2.2V158.5c.1 1.7.4 2 2.8 2 .6 0 1.7 0 2.3-.3.6-.3.9-.7 1.1-1.7 0-.3.1-.4.2-.4s.1.2.1.4-.2 1.8-.3 2.3c-.2.6-.4.6-1.3.6-1.8 0-3.1 0-4.1-.1-.9 0-1.5-.1-1.9-.1h-2.4c-.3 0-.4 0-.4-.2 0-.1 0-.1.2-.1s.5 0 .7-.1c.5-.1.6-.6.7-1.3.1-1 .1-2.9.1-5.2v-4.1zM65.6 158.2c0 2 .3 2.6.9 2.8.5.1 1 .1 1.2.1.1 0 .2 0 .2.1s-.1.2-.4.2c-1.4 0-2.3-.1-2.5-.1-.2 0-1.2.1-2.3.1-.2 0-.4 0-.4-.2 0-.1.1-.1.2-.1.2 0 .6 0 1-.1.6-.2.7-.9.7-3v-13.8c0-.9.1-1.2.3-1.2.2 0 .6.5.8.8.4.4 3.9 4.3 7.6 8.2 2.4 2.5 5 5.5 5.8 6.3l-.3-12.3c0-1.6-.2-2.1-.9-2.3-.4-.1-1-.1-1.2-.1-.2 0-.2-.1-.2-.2s.2-.2.5-.2c1.1 0 2.2.1 2.5.1.3 0 1.1-.1 2-.1.3 0 .4 0 .4.2 0 .1-.1.2-.3.2-.1 0-.3 0-.6.1-.8.2-.9.7-.9 2.1v14.1c0 1.6 0 1.7-.2 1.7s-.5-.3-1.8-1.5c-.3-.2-3.7-3.8-6.3-6.5-2.8-3-5.5-6-6.3-6.9l.5 11.5zM87.9 154.5c0 2.3 0 4.2.1 5.2.1.7.2 1.2.9 1.3.3 0 .9.1 1.1.1.1 0 .2.1.2.1 0 .1-.1.2-.4.2-1.3 0-2.8-.1-3-.1s-1.6.1-2.4.1c-.3 0-.4 0-.4-.2 0-.1 0-.1.2-.1s.5 0 .7-.1c.5-.1.6-.6.7-1.3.1-1 .1-2.9.1-5.2v-4.2-5.2c0-.8-.3-1.2-.8-1.3-.3-.1-.6-.1-.7-.1-.1 0-.2 0-.2-.1s.1-.2.4-.2c.8 0 2.3.1 2.4.1s1.6-.1 2.4-.1c.3 0 .4 0 .4.2 0 .1-.1.1-.2.1-.2 0-.3 0-.6.1-.6.1-.8.5-.9 1.4v9.3zM96.5 154.5c0 3.5.1 5.1.5 5.5.4.4 1 .6 2.9.6 1.3 0 2.3 0 2.9-.7.3-.4.6-1 .6-1.4 0-.2.1-.3.2-.3s.1.1.1.4c0 .3-.2 1.7-.4 2.4-.2.6-.2.6-1.5.6-1.7 0-3 0-4-.1-1 0-1.8-.1-2.4-.1H93c-.3 0-.4 0-.4-.2 0-.1 0-.1.2-.1s.5 0 .7-.1c.5-.1.6-.6.7-1.3.1-1 .1-2.9.1-5.2v-4.2-5.2c0-.8-.2-1.2-1-1.4-.2 0-.6-.1-.8-.1-.1 0-.2 0-.2-.1s.1-.2.4-.2c1.1 0 2.6.1 2.7.1.1 0 1.9-.1 2.6-.1.3 0 .4 0 .4.2 0 .1-.1.1-.2.1-.2 0-.5 0-.8.1-.7.1-.9.5-.9 1.4v9.4zM107.3 150.2V145c0-.8-.2-1.2-1-1.4-.2 0-.6-.1-.8-.1-.1 0-.2 0-.2-.1s.1-.2.4-.2h8.2c.5 0 .8-.1 1-.1.1 0 .2-.1.3-.1.1 0 .1.1.1.2 0 .2-.1.5-.2 1.1 0 .2-.1 1.3-.1 1.6 0 .1-.1.3-.2.3s-.2-.1-.2-.3c0-.2 0-.6-.1-.9-.2-.4-.4-.7-1.7-.8-.4 0-3-.1-3.3-.1-.1 0-.1.1-.1.2v6.6c0 .2 0 .2.1.2h3.8c.6 0 .9-.1 1.1-.3.2-.2.3-.3.4-.3.1 0 .1 0 .1.2 0 .1-.1.6-.2 1.3 0 .5-.1 1.4-.1 1.5 0 .2 0 .5-.2.5-.1 0-.2-.1-.2-.2 0-.2 0-.5-.1-.8-.1-.3-.3-.7-1.2-.8-.6-.1-3-.1-3.4-.1-.1 0-.2.1-.2.2V158.5c.1 1.7.4 2 2.8 2 .6 0 1.7 0 2.3-.3.6-.3.9-.7 1.1-1.7 0-.3.1-.4.2-.4s.1.2.1.4-.2 1.8-.3 2.3c-.2.6-.4.6-1.3.6-1.8 0-3.1 0-4.1-.1-.9 0-1.5-.1-1.9-.1h-2.4c-.3 0-.4 0-.4-.2 0-.1 0-.1.2-.1s.5 0 .7-.1c.5-.1.6-.6.7-1.3.1-1 .1-2.9.1-5.2v-4.1zM130.8 143.9c.3-.8.4-.9.5-.9.1 0 .2.1.5.9.4.9 4.1 10.8 5.6 14.5.9 2.1 1.6 2.5 2.1 2.7.4.1.7.1 1 .1.1 0 .2 0 .2.1s-.2.2-.5.2h-3.8c-.5 0-.7 0-.7-.2 0-.1.1-.1.2-.2.1 0 .3-.3.1-.6l-2.2-5.9c0-.1-.1-.1-.2-.1h-5.2c-.1 0-.2.1-.2.2l-1.4 4.2c-.2.6-.3 1.2-.3 1.6 0 .5.5.7.9.7h.2c.2 0 .2 0 .2.1s-.1.2-.4.2c-.6 0-1.6-.1-1.9-.1s-1.6.1-2.7.1c-.3 0-.5 0-.5-.2 0-.1.1-.1.2-.1h.7c1.1-.1 1.6-1.1 2-2.3l5.6-15zm2.5 9.6c.1 0 .1-.1.1-.2l-2.3-6.5c-.1-.4-.2-.4-.4 0l-2.1 6.5c0 .1 0 .2.1.2h4.6zM144.7 158.2c0 2 .3 2.6.9 2.8.5.1 1 .1 1.2.1.1 0 .2 0 .2.1s-.1.2-.4.2c-1.4 0-2.3-.1-2.5-.1s-1.2.1-2.3.1c-.2 0-.4 0-.4-.2 0-.1.1-.1.2-.1.2 0 .6 0 1-.1.6-.2.7-.9.7-3v-13.8c0-.9.1-1.2.3-1.2.2 0 .6.5.8.8.4.4 3.9 4.3 7.6 8.2 2.4 2.5 5 5.5 5.8 6.3l-.3-12.2c0-1.6-.2-2.1-.9-2.3-.4-.1-1-.1-1.2-.1-.2 0-.2-.1-.2-.2s.2-.2.5-.2c1.1 0 2.2.1 2.5.1.3 0 1.1-.1 2-.1.3 0 .4 0 .4.2 0 .1-.1.2-.3.2-.1 0-.3 0-.6.1-.8.2-.9.7-.9 2.1V160c0 1.6 0 1.7-.2 1.7s-.5-.3-1.8-1.5c-.3-.2-3.7-3.8-6.3-6.5-2.8-3-5.5-6-6.3-6.9l.5 11.4zM165.1 150.2V145c0-.8-.2-1.2-1-1.4-.2 0-.6-.1-.8-.1-.1 0-.2 0-.2-.1s.1-.2.4-.2c1.1 0 2.6.1 2.7.1.3 0 1.8-.1 3.2-.1 2.4 0 6.8-.2 9.6 2.7 1.2 1.2 2.3 3.2 2.3 6.1 0 3-1.2 5.4-2.6 6.8-1 1.1-3.2 2.8-7.3 2.8-1 0-2.3-.1-3.3-.1-1.1-.1-1.9-.1-2-.1h-2.4c-.3 0-.4 0-.4-.2 0-.1 0-.1.2-.1s.5 0 .7-.1c.5-.1.6-.6.7-1.3.1-1 .1-2.9.1-5.2v-4.3zm2.1 2.6v5.2c0 .6.1 1.6.3 1.8.3.5 1.2 1 4.1 1 2.2 0 4.3-.8 5.7-2.2 1.2-1.2 1.9-3.5 1.9-5.7 0-3-1.3-5-2.3-6-2.3-2.4-5-2.7-7.8-2.7-.5 0-1.4.1-1.6.2-.2.1-.3.2-.3.5V152.8zM192.6 150.2V145c0-.8-.2-1.2-1-1.4-.2 0-.6-.1-.8-.1-.1 0-.2 0-.2-.1s.1-.2.4-.2H199.6c.5 0 .8 0 1.1-.1.1 0 .2-.1.3-.1.1 0 .1.1.1.2 0 .2-.1.5-.2 1.1 0 .2-.1 1.3-.1 1.6 0 .1-.1.3-.2.3s-.2-.1-.2-.3c0-.2-.1-.6-.2-.9-.1-.3-.7-.7-1.6-.8l-3.7-.1c-.1 0-.2.1-.2.3v6.6c0 .1 0 .2.2.2h4.2c.6 0 .9-.1 1.1-.4.1-.1.2-.2.3-.2.1 0 .1.1.1.2s-.1.6-.2 1.3c0 .5-.1 1.4-.1 1.6 0 .2 0 .5-.2.5-.1 0-.2-.1-.2-.2 0-.2 0-.6-.1-.9-.1-.3-.5-.8-1.2-.9-.6-.1-3.2-.1-3.6-.1-.1 0-.2 0-.2.2v2c0 2.3 0 4.2.1 5.2.1.7.2 1.2.9 1.3.3 0 .9.1 1.1.1.1 0 .2.1.2.1 0 .1-.1.2-.4.2-1.3 0-2.8-.1-3-.1-.1 0-1.6.1-2.4.1-.3 0-.4 0-.4-.2 0-.1 0-.1.2-.1s.5 0 .7-.1c.5-.1.6-.6.7-1.3.1-1 .1-2.9.1-5.2v-4.1zM208.1 143.9c.3-.8.4-.9.5-.9.1 0 .2.1.5.9.4.9 4.1 10.8 5.6 14.5.9 2.1 1.6 2.5 2.1 2.7.4.1.7.1 1 .1.1 0 .2 0 .2.1s-.2.2-.5.2h-3.8c-.5 0-.7 0-.7-.2 0-.1.1-.1.2-.2.1 0 .3-.3.1-.6l-2.2-5.9c0-.1-.1-.1-.2-.1h-5.2c-.1 0-.2.1-.2.2l-1.4 4.2c-.2.6-.3 1.2-.3 1.6 0 .5.5.7.9.7h.2c.2 0 .2 0 .2.1s-.1.2-.4.2c-.6 0-1.6-.1-1.9-.1-.3 0-1.6.1-2.7.1-.3 0-.5 0-.5-.2 0-.1.1-.1.2-.1h.7c1.1-.1 1.6-1.1 2-2.3l5.6-15zm2.5 9.6c.1 0 .1-.1.1-.2l-2.3-6.5c-.1-.4-.2-.4-.4 0l-2.1 6.5c0 .1 0 .2.1.2h4.6zM239.4 158.3c.1.9.3 2.2 1.3 2.5.7.2 1.3.2 1.6.2.1 0 .2 0 .2.1s-.2.2-.5.2c-.5 0-3.1-.1-4-.1-.6 0-.7-.1-.7-.2s0-.1.2-.2c.1 0 .1-.4.1-.9l-1.2-12.4h-.1l-5.9 12.5c-.5 1.1-.6 1.3-.8 1.3-.2 0-.3-.2-.7-1.1-.6-1.2-2.7-5.3-2.8-5.6-.2-.4-2.9-6.2-3.2-6.8h-.1l-1 11.1v1.2c0 .4.3.7.6.7.4.1.8.1.9.1.1 0 .2 0 .2.1 0 .2-.1.2-.4.2-.9 0-2-.1-2.2-.1-.2 0-1.4.1-2 .1-.2 0-.4 0-.4-.2 0-.1.1-.1.2-.1.2 0 .4 0 .7-.1.8-.1.9-1.1 1-2l1.7-15.6c0-.3.1-.4.3-.4.1 0 .2.1.4.4l7.3 15.1 7.1-15.1c.1-.2.2-.4.4-.4s.2.2.3.6l1.5 14.9zM247.9 154.5c0 2.3 0 4.2.1 5.2.1.7.2 1.2.9 1.3.3 0 .9.1 1.1.1.1 0 .2.1.2.1 0 .1-.1.2-.4.2-1.3 0-2.8-.1-3-.1-.1 0-1.6.1-2.4.1-.3 0-.4 0-.4-.2 0-.1 0-.1.2-.1s.5 0 .7-.1c.5-.1.6-.6.7-1.3.1-1 .1-2.9.1-5.2v-4.2-5.2c0-.8-.3-1.2-.8-1.3-.3-.1-.6-.1-.7-.1-.1 0-.2 0-.2-.1s.1-.2.4-.2c.8 0 2.3.1 2.4.1.1 0 1.6-.1 2.4-.1.3 0 .4 0 .4.2 0 .1-.1.1-.2.1-.2 0-.3 0-.6.1-.6.1-.8.5-.9 1.4v9.3zM256.5 154.5c0 3.5.1 5.1.5 5.5.4.4 1 .6 2.9.6 1.3 0 2.3 0 2.9-.7.3-.4.6-1 .6-1.4 0-.2.1-.3.2-.3s.1.1.1.4c0 .3-.2 1.7-.4 2.4-.2.6-.2.6-1.5.6-1.7 0-3 0-4-.1-1 0-1.8-.1-2.4-.1H253c-.3 0-.4 0-.4-.2 0-.1 0-.1.2-.1s.5 0 .7-.1c.5-.1.6-.6.7-1.3.1-1 .1-2.9.1-5.2v-4.2-5.2c0-.8-.2-1.2-1-1.4-.2 0-.6-.1-.8-.1-.1 0-.2 0-.2-.1s.1-.2.4-.2c1.1 0 2.6.1 2.7.1.1 0 1.9-.1 2.6-.1.3 0 .4 0 .4.2 0 .1-.1.1-.2.1-.2 0-.5 0-.8.1-.7.1-.9.5-.9 1.4v9.4zM269 155.2c0-1.3-.2-1.8-.6-2.5-.2-.4-3.4-5.7-4.2-6.9-.6-.9-1.2-1.5-1.6-1.8-.4-.2-.8-.4-1-.4-.1 0-.2 0-.2-.2 0-.1.1-.2.3-.2.5 0 2.3.1 2.4.1.2 0 1.1-.1 2-.1.3 0 .3.1.3.2s-.1.1-.4.2c-.2.1-.3.2-.3.4 0 .3.1.6.3.9.4.7 4 6.9 4.4 7.6.5-1 3.5-6.3 4-7.1.3-.5.4-.9.4-1.2 0-.3-.1-.6-.4-.7-.2-.1-.4-.1-.4-.2s.1-.1.4-.1c.6 0 1.4.1 1.6.1.1 0 1.9-.1 2.3-.1.2 0 .3 0 .3.1s-.1.2-.3.2c-.3 0-.7.1-1.1.3-.5.3-.7.6-1.3 1.2-.8 1-4.2 6.6-4.6 7.6-.4.9-.4 1.6-.4 2.4v2.1c0 .4 0 1.4.1 2.4.1.7.3 1.2 1 1.3.3 0 .9.1 1.1.1.1 0 .2.1.2.1 0 .1-.1.2-.4.2-1.3 0-2.8-.1-3-.1-.1 0-1.6.1-2.4.1-.3 0-.4 0-.4-.2 0-.1 0-.1.2-.1s.5 0 .7-.1c.5-.1.7-.6.7-1.3.1-1 .1-2 .1-2.4v-1.9zM287.6 159.2c-2.3-2.1-2.9-4.8-2.9-7.1 0-1.6.6-4.4 2.7-6.6 1.4-1.4 3.6-2.6 7.3-2.6 1 0 2.3.1 3.5.3.9.2 1.7.3 2.4.4.3 0 .3.1.3.3 0 .2-.1.5-.1 1.3s0 2.1-.1 2.5c0 .4-.1.5-.2.5-.2 0-.2-.2-.2-.5 0-.9-.4-1.9-1-2.4-.8-.7-2.7-1.4-4.8-1.4-3.2 0-4.7.9-5.5 1.8-1.8 1.7-2.2 3.8-2.2 6.3 0 4.6 3.5 8.8 8.7 8.8 1.8 0 3.2-.2 4.2-1.2.5-.5.8-1.6.9-2 0-.3.1-.4.2-.4s.2.2.2.4-.3 2.3-.5 3.1c-.1.5-.2.5-.6.7-1 .4-2.8.6-4.3.6-3.6-.2-6.1-1.1-8-2.8zM312.1 142.9c5.4 0 9.4 3.4 9.4 9 0 5.4-3.8 9.8-9.6 9.8-6.6 0-9.3-5.1-9.3-9.4 0-3.9 2.8-9.4 9.5-9.4zm.5 17.9c2.2 0 6.6-1.2 6.6-8.2 0-5.8-3.5-8.9-7.3-8.9-4 0-7 2.6-7 7.9 0 5.6 3.3 9.2 7.7 9.2zM324.2 150.2V145c0-.8-.2-1.2-1-1.4-.2 0-.6-.1-.8-.1-.1 0-.2 0-.2-.1s.1-.2.4-.2c1.1 0 2.5.1 2.8.1.2 0 1.7-.1 2.4-.1.3 0 .4 0 .4.2 0 .1-.1.1-.2.1-.2 0-.3 0-.6.1-.6.1-.8.5-.9 1.4v8.6c0 3.5.8 4.9 1.8 5.9 1.2 1.1 2.3 1.3 3.6 1.3 1.5 0 2.9-.7 3.8-1.7 1.1-1.4 1.4-3.4 1.4-5.9v-3c0-3.7 0-4.4-.1-5.2 0-.8-.2-1.2-1-1.4-.2 0-.6-.1-.8-.1-.1 0-.2 0-.2-.1s.1-.2.4-.2c1.1 0 2.4.1 2.5.1.2 0 1.3-.1 2-.1.3 0 .4 0 .4.2 0 .1-.1.1-.2.1-.2 0-.3 0-.6.1-.6.1-.8.5-.9 1.4V152.8c0 2.6-.3 5.5-2.2 7.2-1.7 1.5-3.5 1.8-4.9 1.8-.8 0-3.2-.1-4.9-1.7-1.2-1.1-2.1-2.8-2.1-6.3v-3.6zM344.2 150.2V145c0-.8-.2-1.2-1-1.4-.2 0-.6-.1-.8-.1-.1 0-.2 0-.2-.1s.1-.2.4-.2c1.1 0 2.6.1 2.7.1.3 0 2.1-.1 2.8-.1 1.5 0 3.1.1 4.4 1.1.6.4 1.7 1.6 1.7 3.3 0 1.8-.7 3.6-2.9 5.5 2 2.5 3.6 4.7 5 6.1 1.3 1.4 2.3 1.6 2.9 1.7.5.1.8.1.9.1.1 0 .2.1.2.1 0 .1-.1.2-.6.2H358c-1.3 0-1.9-.1-2.6-.5-1-.6-1.9-1.7-3.2-3.5-1-1.3-2.1-2.9-2.6-3.6-.1-.1-.2-.1-.3-.1h-3c-.1 0-.2.1-.2.2v.6c0 2.3 0 4.2.1 5.2.1.7.2 1.2.9 1.3.3 0 .9.1 1.1.1.1 0 .2.1.2.1 0 .1-.1.2-.4.2-1.3 0-2.8-.1-3-.1 0 0-1.5.1-2.3.1-.3 0-.4 0-.4-.2 0-.1 0-.1.2-.1s.5 0 .7-.1c.5-.1.6-.6.7-1.3.1-1 .1-2.9.1-5.2v-4.2zm1.9 2.1c0 .1 0 .2.2.3.4.2 1.5.4 2.5.4.6 0 1.2-.1 1.8-.5.8-.6 1.5-1.9 1.5-3.7 0-3-1.6-4.8-4.2-4.8-.7 0-1.4.1-1.6.1-.1 0-.2.1-.2.3v7.9zM366 154.5c0 2.3 0 4.2.1 5.2.1.7.2 1.2.9 1.3.3 0 .9.1 1.1.1.1 0 .2.1.2.1 0 .1-.1.2-.4.2-1.3 0-2.8-.1-3-.1-.1 0-1.6.1-2.4.1-.3 0-.4 0-.4-.2 0-.1 0-.1.2-.1s.5 0 .7-.1c.5-.1.6-.6.7-1.3.1-1 .1-2.9.1-5.2v-10.2h-3.6c-1.5 0-2.1.2-2.4.8-.3.4-.3.6-.4.7-.1.2-.1.2-.2.2s-.1-.1-.1-.2c0-.2.5-2.3.5-2.5.1-.1.1-.5.2-.5.2 0 .4.2 1.1.3.7.1 1.6.1 1.9.1h9c.8 0 1.3 0 1.7-.1.4 0 .6-.1.7-.1.1 0 .1.1.1.3 0 .7-.1 2.4-.1 2.6 0 .2-.1.3-.2.3s-.2-.1-.2-.4v-.3c-.1-.7-.6-1.3-3-1.3h-3v10.3zM384.9 156c0 3.9 0 5.4-.7 7.1-.5 1.2-1.6 2.3-3.5 3.7-.3.2-.7.5-.9.6h-.2c-.1 0-.2 0-.2-.1s.1-.2.3-.4c.3-.2.6-.5.8-.7 1.6-1.6 2.3-2.9 2.3-9v-6.9-5.2c0-.8-.2-1.2-1-1.4-.2 0-.6-.1-.8-.1-.1 0-.2 0-.2-.1s.1-.2.4-.2c1.1 0 2.6.1 2.7.1.1 0 1.6-.1 2.4-.1.3 0 .4 0 .4.2 0 .1-.1.1-.2.1-.2 0-.3 0-.6.1-.6.1-.8.5-.9 1.4-.1.8-.1 1.4-.1 5.2v5.7zM390.4 150.2V145c0-.8-.2-1.2-1-1.4-.2 0-.6-.1-.8-.1-.1 0-.2 0-.2-.1s.1-.2.4-.2c1.1 0 2.5.1 2.8.1.2 0 1.7-.1 2.4-.1.3 0 .4 0 .4.2 0 .1-.1.1-.2.1-.2 0-.3 0-.6.1-.6.1-.8.5-.9 1.4-.1.8-.1 1.4-.1 5.2v3.4c0 3.5.8 4.9 1.8 5.9 1.2 1.1 2.3 1.3 3.6 1.3 1.5 0 2.9-.7 3.8-1.7 1.1-1.4 1.4-3.4 1.4-5.9v-3-5.2c0-.8-.2-1.2-1-1.4-.2 0-.6-.1-.8-.1-.1 0-.2 0-.2-.1s.1-.2.4-.2c1.1 0 2.4.1 2.5.1.2 0 1.3-.1 2-.1.3 0 .4 0 .4.2 0 .1-.1.1-.2.1-.2 0-.3 0-.6.1-.6.1-.8.5-.9 1.4V152.8c0 2.6-.3 5.5-2.2 7.2-1.7 1.5-3.5 1.8-4.9 1.8-.8 0-3.2-.1-4.9-1.7-1.2-1.1-2.1-2.8-2.1-6.3v-3.6zM410.4 150.2V145c0-.8-.2-1.2-1-1.4-.2 0-.6-.1-.8-.1-.1 0-.2 0-.2-.1s.1-.2.4-.2c1.1 0 2.6.1 2.7.1.3 0 1.8-.1 3.2-.1 2.4 0 6.8-.2 9.6 2.7 1.2 1.2 2.3 3.2 2.3 6.1 0 3-1.2 5.4-2.6 6.8-1 1.1-3.2 2.8-7.3 2.8-1 0-2.3-.1-3.3-.1-1.1-.1-1.9-.1-2-.1H409c-.3 0-.4 0-.4-.2 0-.1 0-.1.2-.1s.5 0 .7-.1c.5-.1.6-.6.7-1.3.1-1 .1-2.9.1-5.2v-4.3zm2 2.6v5.2c0 .6.1 1.6.3 1.8.3.5 1.2 1 4.1 1 2.2 0 4.3-.8 5.7-2.2 1.2-1.2 1.9-3.5 1.9-5.7 0-3-1.3-5-2.3-6-2.3-2.4-5-2.7-7.8-2.7-.5 0-1.4.1-1.6.2-.2.1-.3.2-.3.5V152.8zM442.6 155.3c0-1.9-.1-2.2-1.1-2.5-.2 0-.6-.1-.8-.1-.1 0-.2 0-.2-.1s.1-.2.4-.2c1.1 0 2.6.1 2.7.1.1 0 1.6-.1 2.4-.1.3 0 .4 0 .4.2 0 .1-.1.1-.2.1-.2 0-.3 0-.6.1-.6.1-.8.5-.9 1.4v5.2c0 1.1 0 1.1-.3 1.3-1.5.8-3.7 1.1-5.1 1.1-1.8 0-5.2-.2-7.9-2.6-1.5-1.3-2.9-3.8-2.9-6.8 0-3.8 1.9-6.6 4-7.9 2.2-1.3 4.5-1.5 6.4-1.5 1.5 0 3.2.3 3.7.4.5.1 1.3.2 1.9.2.2 0 .3.1.3.2 0 .3-.2 1-.2 3.4 0 .4 0 .5-.2.5-.1 0-.1-.1-.2-.4 0-.3-.1-1-.5-1.6-.6-.9-2.5-1.9-5.6-1.9-1.5 0-3.3.1-5.1 1.6-1.4 1.1-2.4 3.3-2.4 6.1 0 3.4 1.7 5.8 2.5 6.6 1.9 1.8 4.1 2.6 6.3 2.6.9 0 2.1-.1 2.7-.5.3-.2.5-.4.5-.8v-4.1zM449.7 150.2V145c0-.8-.2-1.2-1-1.4-.2 0-.6-.1-.8-.1-.1 0-.2 0-.2-.1s.1-.2.4-.2h8.2c.5 0 .8-.1 1-.1.1 0 .2-.1.3-.1.1 0 .1.1.1.2 0 .2-.1.5-.2 1.1 0 .2-.1 1.3-.1 1.6 0 .1-.1.3-.2.3s-.2-.1-.2-.3c0-.2 0-.6-.1-.9-.2-.4-.4-.7-1.7-.8-.4 0-3-.1-3.3-.1-.1 0-.1.1-.1.2v6.6c0 .2 0 .2.1.2h3.8c.6 0 .9-.1 1.1-.3.2-.2.3-.3.4-.3.1 0 .1 0 .1.2 0 .1-.1.6-.2 1.3 0 .5-.1 1.4-.1 1.5 0 .2 0 .5-.2.5-.1 0-.2-.1-.2-.2 0-.2 0-.5-.1-.8-.1-.3-.3-.7-1.2-.8-.6-.1-3-.1-3.4-.1-.1 0-.2.1-.2.2V158.5c.1 1.7.4 2 2.8 2 .6 0 1.7 0 2.3-.3.6-.3.9-.7 1.1-1.7 0-.3.1-.4.2-.4s.1.2.1.4-.2 1.8-.3 2.3c-.2.6-.4.6-1.3.6-1.8 0-3.1 0-4.1-.1-.9 0-1.5-.1-1.9-.1h-2.4c-.3 0-.4 0-.4-.2 0-.1 0-.1.2-.1s.5 0 .7-.1c.5-.1.6-.6.7-1.3.1-1 .1-2.9.1-5.2v-4.1zM461 161.1c-.3-.2-.4-.3-.4-.9 0-1.2.1-2.2.1-2.5 0-.3.1-.4.2-.4s.2.1.2.3c0 .2 0 .6.1.9.4 1.8 1.9 2.4 3.6 2.4 2.3 0 3.4-1.7 3.4-3.2 0-1.7-.7-2.6-2.8-4.3l-1.1-.9c-2.5-2.1-3.1-3.6-3.1-5.2 0-2.6 1.9-4.3 5-4.3.9 0 1.6.1 2.2.2.5.1.6.1.8.1.2 0 .2 0 .2.2 0 .1-.1.9-.1 2.5 0 .4 0 .6-.2.6-.1 0-.2-.1-.2-.3 0-.3-.2-.9-.3-1.2-.1-.3-.8-1.3-3-1.3-1.7 0-3 1-3 2.8 0 1.4.6 2.2 2.9 4l.7.5c2.8 2.2 3.5 3.7 3.5 5.6 0 1-.4 2.8-2 4-1 .7-2.3 1-3.6 1-1 .1-2.1-.1-3.1-.6z"/>
	</g>
	<g fill="#A1A1A4">
		<path d="M293.3 95.3c0 1.2-1.6 2-3.9 2.7-.1.3-.2.8-.2 1.4 0 .5.3.9.8.9.6 0 1-.3 1.7-.9.1 0 .2.1.2.3-1 1.2-1.9 1.5-2.6 1.5-1 0-1.3-.9-1.3-1.7 0-1 .6-3 2.4-4.3.8-.6 1.5-.8 1.9-.8.6-.1 1 .5 1 .9zm-2.6.3c-.6.7-1 1.4-1.2 1.9 1.1-.3 1.6-.6 2.1-1.2.5-.5.6-.9.6-1.1 0-.2-.1-.4-.4-.4-.1 0-.5.2-1.1.8zM297.6 95.3c0 .3-.2.4-.3.5-.1 0-.2 0-.3-.1-.3-.3-.5-.5-1-.5s-.7.4-.7.6c0 .3.1.7.5 1.5.4.7.6 1.1.6 1.8 0 .4-.2 1-.8 1.5-.4.4-1 .6-1.6.6-.6 0-1-.5-1-.8 0-.2.1-.3.2-.5.1-.1.3-.1.4 0 .2.2.7.6 1.1.6.4 0 .8-.4.8-.9 0-.3-.2-.8-.6-1.4-.4-.7-.6-1.2-.6-1.5 0-.6.3-1.1 1-1.7.5-.4 1-.5 1.2-.5.7-.2 1.1.4 1.1.8zM301 95.3l-1.4 4.2c-.1.3 0 .4.1.4.2 0 1.3-.8 1.8-1.4.2 0 .3.1.2.3-.9 1.3-2.4 2.3-3.1 2.3-.2 0-.4-.2-.4-.4s.1-.4.2-.9l1.5-4.4h-1.2c0-.2 0-.4.2-.4l1.3-.2.9-1.6c.2-.1.5-.1.6.1l-.5 1.6h1.7c.1.2 0 .5-.2.6H301zM304.8 100.1c0 .6-.4 1-.9 1-.4 0-.7-.3-.7-.8 0-.6.4-1 .9-1 .4.1.7.4.7.8zM315 98.9c-.4 1.3-.2 1.4.6 1.5h.4c.1.1.1.3 0 .4h-4.1c-.1-.1-.1-.4 0-.4h.4c1-.1 1.2-.4 1.5-1.6l1.6-5.4c.4-1.2.3-1.5-.3-1.5l-.7-.1c-.1-.1-.1-.3 0-.3 1.4-.2 2.3-.6 2.8-.9.1 0 .2 0 .2.1-.2.5-.5 1.3-.7 1.9l-1.7 6.3zM326.3 93.7c0 1.1-.5 2.6-1.4 3.9-1.7 2.5-4.2 3.9-7.1 4.3-.1 0-.2-.3-.1-.4 2-.5 4-1.5 5.3-3.2 1.2-1.5 2-3.7 2-5.1 0-1-.4-2-1.5-2-1.4 0-2.4 1.5-2.4 3.1 0 .9.3 1.8 1.4 1.8.3 0 .5 0 .6-.1.1 0 .1.2.1.3-.3.2-.9.4-1.3.4-1.3 0-2.1-.9-2.1-2.3 0-1.7 1.6-3.7 3.8-3.7 1.9-.1 2.7 1.3 2.7 3zM333.7 92.3c0 1.1-1.4 1.8-2.3 2.2-.3.1-.1.3.1.3.9.2 1.8.9 1.8 2.2 0 1.5-1.2 2.9-2.4 3.6-1.4.9-2.8 1.1-3.7 1.1-.9 0-1.6-.4-1.6-.9 0-.4.3-.7.7-.7.4 0 .6.3.8.6.2.3.5.4.9.4.5 0 1.3-.2 2.1-.7 1.2-.8 1.8-2 1.8-3.3 0-1-.6-1.8-1.8-1.8-.7 0-1.4.4-1.9.8-.3 0-.4-.4-.2-.6.7-.3 2.1-.9 2.9-1.3.9-.5 1.5-1.2 1.5-1.9 0-.9-.6-1.2-1.2-1.2-.8 0-1.7.6-2.4 1.4-.2 0-.3-.1-.3-.3.6-.9 1.7-1.8 3.2-1.8 1.3.2 2 .9 2 1.9zM335.1 101.9c-.3 0-.5-.1-.5-.3l6.8-9.1c.4-.5.2-.6-.2-.6H338c-1.2 0-1.3.1-1.8.7-.1.1-.3 0-.4-.1.2-.3.6-1 .8-1.6H343.2c.1 0 .1.1.1.2-.7.6-1.3 1.5-2.2 2.7l-6 8.1z"/>
	</g>
	<g fill="#3B6E8F">
		<path d="M363.5 62.6c0 13.1 0 18.1-2.4 23.9-1.7 4-5.3 7.9-11.8 12.4-1.1.7-2.3 1.6-3.2 2-.2.1-.3.2-.6.2-.2 0-.6-.2-.6-.5 0-.5.4-.7 1.1-1.2 1-.6 2.1-1.5 2.8-2.3 5.3-5.3 7.8-9.6 7.8-30.5V43.2c0-12.6 0-14.9-.2-17.5-.2-2.8-.8-4-3.5-4.6-.6-.2-2-.2-2.8-.2-.3 0-.6-.2-.6-.5 0-.5.4-.6 1.3-.6 3.6 0 8.7.2 9.2.2.4 0 5.5-.2 7.9-.2.9 0 1.3.2 1.3.6 0 .3-.3.5-.6.5-.6 0-1.1.1-2 .2-2.2.4-2.8 1.8-3 4.6-.2 2.6-.2 4.9-.2 17.5v19.4z"/>
		<path d="M302.4 73.3c-7.9-7-9.8-16.3-9.8-24 0-5.4 1.9-14.9 9.1-22.1 4.9-4.9 12.2-8.7 24.7-8.7 3.2 0 7.8.2 11.7 1 3.1.6 5.7 1.1 8.3 1.2.9.1 1.1.4 1.1.9 0 .6-.2 1.6-.4 4.5-.2 2.7-.2 7.1-.2 8.3-.1 1.2-.2 1.7-.7 1.7-.6 0-.6-.6-.6-1.7 0-3.2-1.3-6.5-3.4-8.3-2.8-2.4-9.1-4.6-16.2-4.6-10.8 0-15.8 3.2-18.6 5.9-5.9 5.7-7.3 12.9-7.3 21.1 0 15.5 11.9 29.6 29.2 29.6 6.1 0 10.8-.7 14.1-4 1.7-1.8 2.8-5.3 3-6.8.2-.9.3-1.2.8-1.2.4 0 .6.6.6 1.2s-1 7.6-1.8 10.4c-.5 1.5-.6 1.7-2.1 2.3-3.2 1.3-9.4 1.9-14.6 1.9-12.4.2-20.5-2.8-26.9-8.6zM261.9 43.2c0-12.6 0-14.9-.2-17.5-.2-2.8-.8-4-3.5-4.6-.6-.2-2-.2-2.8-.2-.3 0-.6-.2-.6-.5 0-.5.4-.6 1.3-.6 3.6 0 8.7.2 9.1.2 1.6 0 18.1 0 19.9-.1 1.5-.1 2.8-.1 3.6-.3.5-.2.8-.5 1.1-.5.3 0 .5.3.5.7 0 .6-.4 1.5-.6 3.8-.1.8-.2 4.4-.4 5.3-.1.4-.2.9-.6.9-.4 0-.6-.4-.6-1s-.2-2-.7-3.1c-.5-1.1-2.3-2.5-5.5-2.6l-12.5-.1c-.5 0-.7.2-.7.9v22.3c0 .5.1.7.6.7l10.4-.1c1.4 0 2.5 0 3.6-.1 1.9-.2 3-.4 3.7-1.5.3-.4.6-.8.9-.8s.4.2.4.6c0 .5-.4 1.9-.6 4.5-.2 1.6-.3 4.9-.3 5.4 0 .7 0 1.5-.6 1.5-.4 0-.6-.3-.6-.7-.1-.8-.2-1.9-.5-2.9-.4-1.1-1.7-2.6-4.2-2.9-2-.2-10.8-.2-12.2-.2-.4 0-.6.2-.6.7v6.9c0 7.8 0 14.2.4 17.6.2 2.3.7 4.1 3.2 4.5 1.1.2 2.9.3 3.6.3.5 0 .6.2.6.5 0 .4-.4.6-1.3.6-4.5 0-9.6-.2-10-.2-.4 0-5.5.2-7.9.2-.9 0-1.3-.2-1.3-.6 0-.2.2-.5.6-.5.7 0 1.7-.2 2.4-.3 1.6-.3 2-2.1 2.3-4.5.4-3.4.4-9.8.4-17.6V43.2zM246.2 62.6c0 13.1 0 18.1-2.4 23.9-1.7 4-5.3 7.9-11.8 12.4-1.1.7-2.3 1.6-3.2 2-.2.1-.3.2-.6.2-.2 0-.6-.2-.6-.5 0-.5.4-.7 1.1-1.2 1-.6 2.1-1.5 2.8-2.3 5.3-5.3 7.8-9.6 7.8-30.5V43.2c0-12.6 0-14.9-.2-17.5-.2-2.8-.8-4-3.5-4.6-.6-.2-2-.2-2.8-.2-.3 0-.6-.2-.6-.5 0-.5.4-.6 1.3-.6 3.6 0 8.7.2 9.1.2.4 0 5.5-.2 7.9-.2.9 0 1.3.2 1.3.6 0 .3-.3.5-.6.5-.6 0-1.1.1-2 .2-2.2.4-2.8 1.8-3 4.6-.2 2.6-.2 4.9-.2 17.5v19.4z"/>
		<path d="M185 73.3c-7.9-7-9.8-16.3-9.8-24 0-5.4 1.9-14.9 9.1-22.1 4.9-4.9 12.2-8.7 24.7-8.7 3.2 0 7.8.2 11.7 1 3.1.6 5.7 1.1 8.3 1.2.9.1 1.1.4 1.1.9 0 .6-.2 1.6-.4 4.5-.2 2.7-.2 7.1-.2 8.3-.1 1.2-.2 1.7-.7 1.7-.6 0-.6-.6-.6-1.7 0-3.2-1.3-6.5-3.4-8.3-2.8-2.4-9.1-4.6-16.2-4.6-10.8 0-15.8 3.2-18.6 5.9-5.9 5.7-7.3 12.9-7.3 21.1 0 15.5 11.9 29.6 29.2 29.6 6.1 0 10.8-.7 14.1-4 1.7-1.8 2.8-5.3 3-6.8.2-.9.3-1.2.8-1.2.4 0 .6.6.6 1.2s-1 7.6-1.8 10.4c-.5 1.5-.6 1.7-2.1 2.3-3.2 1.3-9.4 1.9-14.6 1.9-12.3.2-20.5-2.8-26.9-8.6zM123.7 69.9c.2 6.6 1 8.7 3.2 9.4 1.5.4 3.3.5 4 .5.4 0 .6.2.6.5 0 .5-.5.6-1.5.6-4.6 0-7.9-.2-8.6-.2-.7 0-4.1.2-7.8.2-.8 0-1.3-.1-1.3-.6 0-.3.2-.5.6-.5.6 0 2.1-.1 3.3-.5 2-.6 2.4-2.9 2.4-10.3l.1-46.4c0-3.2.2-4 .9-4 .6 0 2 1.8 2.8 2.6 1.2 1.4 13.3 14.4 25.7 27.8 8 8.6 16.8 18.5 19.4 21.1l-.5-41.2c-.1-5.3-.6-7-3.2-7.7-1.5-.3-3.3-.4-4-.4-.6 0-.6-.2-.6-.6 0-.5.6-.6 1.6-.6 3.6 0 7.5.2 8.4.2.9 0 3.6-.2 6.9-.2.9 0 1.5.1 1.5.6 0 .3-.3.6-.9.6-.4 0-1 0-1.9.2-2.7.6-3 2.3-3 7.2l-.2 47.4c0 5.3-.2 5.7-.7 5.7-.6 0-1.6-.9-5.9-5.2-.9-.8-12.5-12.7-21.1-21.9-9.4-10.1-18.5-20.3-21.1-23.2l.9 38.9z"/>
	</g>
	<g fill-rule="evenodd" fill="#3B6E8F">
		<path d="M227.9 5.1c-1.2 0-2.2 1-2.2 2.2 0 1.2 1 2.2 2.2 2.2 1.2 0 2.2-1 2.2-2.2 0-1.2-1-2.2-2.2-2.2zm0 3.4c-.6 0-1.2-.5-1.2-1.2 0-.6.5-1.2 1.2-1.2.6 0 1.2.5 1.2 1.2-.1.7-.6 1.2-1.2 1.2zM296.1 5.4c-1.2 0-2.2 1-2.2 2.2 0 1.2 1 2.2 2.2 2.2 1.2 0 2.2-1 2.2-2.2 0-1.3-1-2.2-2.2-2.2zm0 3.3c-.6 0-1.2-.5-1.2-1.2 0-.6.5-1.2 1.2-1.2.6 0 1.2.5 1.2 1.2s-.5 1.2-1.2 1.2z"/>
		<path d="M296 2.2L227.8 2c-2.9 0-5.3 2.4-5.3 5.3s2.4 5.3 5.3 5.3c2.6 0 4.7-1.8 5.2-4.2l.1-.3c.1-.3.1-.7 0-1.1-.1-.6-.1-.9-.4-1.7-.4-.8-1-1.5-1-1.5s2 .9 2.5 2.3c.3.9.3 1.6.3 2.1h54.8c0-.5.1-1.1.3-1.9.5-1.4 2.5-2.3 2.5-2.3s-.6.7-1 1.5-.3 1.1-.4 1.7c-.1.4 0 .7 0 1v.5c.5 2.4 2.6 4.2 5.2 4.2 2.9 0 5.3-2.4 5.3-5.3.2-3-2.2-5.4-5.2-5.4zm-68.2 9c-2.2 0-3.9-1.7-3.9-3.9 0-2.1 1.7-3.9 3.9-3.9 2.1 0 3.9 1.7 3.9 3.9s-1.8 3.9-3.9 3.9zm68.2.2c-2.2 0-3.9-1.7-3.9-3.9 0-2.1 1.7-3.9 3.9-3.9 2.1 0 3.9 1.7 3.9 3.9s-1.7 3.9-3.9 3.9z"/>
		<path d="M289 14.5c0 1.1-.9 2.1-2.1 2.1h-50.6c-1.2 0-2.1-.9-2.1-2.1v-1.8c0-1.1.9-2.1 2.1-2.1H287c1.1 0 2.1.9 2.1 2.1v1.8z"/>
		<path d="M286 12.8h-47.8c-.6 0-1 .3-1 .8 0 .4.5.8 1 .8H286c.6 0 1-.3 1-.8 0-.4-.4-.8-1-.8z"/>
	</g>
</svg>