<?xml version="1.0" encoding="utf-8"?>
<!-- Generator: Adobe Illustrator 21.0.2, SVG Export Plug-In . SVG Version: 6.00 Build 0)  -->
<svg version="1.2" baseProfile="tiny" id="Layer_1" xmlns="http://www.w3.org/2000/svg" xmlns:xlink="http://www.w3.org/1999/xlink"
	 x="0px" y="0px" viewBox="0 0 109.9 90.7" overflow="scroll" xml:space="preserve">
<g id="icf">
	<polygon points="109.9,66.1 109.9,57.7 99,57.7 95.1,57.7 89,57.7 89,88.4 99,88.4 99,78.2 108.7,78.2 108.7,69.8 99,69.8 99,66.1 
			"/>
	<path d="M76.3,77.2c-1.2,1.6-3.2,2.7-5.4,2.7c-3.8,0-6.8-3.1-6.8-6.8c0-3.8,3.1-6.8,6.8-6.8c2.2,0,4.1,1,5.4,2.6l7.4-6.5
		c-3.1-3.6-7.6-6-12.8-6c-9.2,0-16.7,7.5-16.7,16.7c0,9.2,7.5,16.7,16.7,16.7c5.2,0,9.8-2.4,12.9-6.1L76.3,77.2z"/>
	<rect x="38.6" y="57.7" width="10.7" height="30.7"/>
	
		<rect x="71.1" y="29.1" transform="matrix(-1.836970e-16 1 -1 -1.836970e-16 116.5208 -27.7292)" fill="#EC008C" width="2.1" height="30.6"/>
	
		<rect x="62.7" y="9.1" transform="matrix(0.7071 0.7071 -0.7071 0.7071 36.0101 -38.207)" fill="#F89C28" width="2.8" height="30.6"/>
	<rect x="42.3" y="1" fill="#6BBE4D" width="3.8" height="30.6"/>
	
		<rect x="21.4" y="9.1" transform="matrix(0.7071 -0.7071 0.7071 0.7071 -10.2065 24.2135)" fill="#04B393" width="5.4" height="30.6"/>
	
		<rect x="12.4" y="28.9" transform="matrix(6.123234e-17 -1 1 6.123234e-17 -28.8721 60.0446)" fill="#00AEEF" width="6.3" height="31.2"/>
	
		<rect x="20.3" y="49.1" transform="matrix(-0.7071 -0.7071 0.7071 -0.7071 -5.0637 127.361)" fill="#044E7C" width="7.1" height="31.2"/>
</g>
</svg>
