<?xml version="1.0" encoding="utf-8"?>
<!-- Generator: Adobe Illustrator 21.0.2, SVG Export Plug-In . SVG Version: 6.00 Build 0)  -->
<svg version="1.2" baseProfile="tiny" id="Layer_1" xmlns="http://www.w3.org/2000/svg" xmlns:xlink="http://www.w3.org/1999/xlink"
	 x="0px" y="0px" viewBox="0 0 233.4 37.8" overflow="scroll" xml:space="preserve">
<g id="nctsn">
	<g>
		<g>
			<path fill="#095AAB" d="M119.6,37.4v-6h-2.4v-0.7h5.7v0.7h-2.4v6H119.6z"/>
			<path fill="#095AAB" d="M123.6,37.4v-4.9h0.9v0.9c0.2-0.3,0.4-0.6,0.7-0.8c0.3-0.2,0.6-0.3,0.9-0.3c0.1,0,0.2,0,0.3,0v0.8
				c-0.2-0.1-0.3-0.1-0.4-0.1c-0.3,0-0.5,0.1-0.8,0.3c-0.2,0.2-0.4,0.4-0.6,0.8v3.2H123.6z"/>
			<path fill="#095AAB" d="M129.6,36.7c-0.3,0.2-0.5,0.4-0.8,0.6c-0.3,0.1-0.5,0.2-0.8,0.2c-0.4,0-0.7-0.1-1-0.3
				c-0.3-0.2-0.5-0.6-0.5-1c0-0.5,0.2-0.9,0.6-1.2c0.4-0.3,1.1-0.5,2-0.5h0.2v-0.6c0-0.2,0-0.4-0.1-0.5c-0.1-0.1-0.2-0.2-0.3-0.3
				s-0.3-0.1-0.5-0.1c-0.5,0-1,0.1-1.5,0.4v-0.7c0.6-0.2,1.2-0.4,1.7-0.4c0.3,0,0.6,0,0.8,0.1c0.2,0.1,0.4,0.2,0.6,0.4
				c0.1,0.2,0.2,0.5,0.2,1v2.2c0,0.2,0,0.4,0.1,0.5c0,0.1,0.1,0.2,0.2,0.2c0.1,0,0.2,0.1,0.2,0.1c0,0,0.1,0,0.2,0l0.1,0.5
				c-0.2,0.1-0.4,0.1-0.7,0.1c-0.2,0-0.3-0.1-0.5-0.2C129.8,37.2,129.7,37,129.6,36.7z M129.5,36.2V35l-0.3,0
				c-0.5,0-0.9,0.1-1.2,0.3s-0.5,0.4-0.5,0.7c0,0.2,0.1,0.4,0.2,0.5c0.2,0.1,0.3,0.2,0.6,0.2c0.2,0,0.4,0,0.6-0.1
				S129.3,36.4,129.5,36.2z"/>
			<path fill="#095AAB" d="M135.2,37.4v-0.9c-0.2,0.3-0.5,0.6-0.8,0.8c-0.3,0.2-0.6,0.3-0.9,0.3c-0.4,0-0.7-0.1-1-0.4
				c-0.3-0.3-0.4-0.6-0.4-1.1v-3.5h0.9v3.2c0,0.3,0,0.6,0.1,0.7c0.1,0.1,0.1,0.2,0.3,0.3c0.1,0.1,0.2,0.1,0.4,0.1
				c0.2,0,0.5-0.1,0.7-0.2c0.3-0.1,0.5-0.4,0.8-0.9v-3.2h0.9v4.9H135.2z"/>
			<path fill="#095AAB" d="M137.9,37.4v-4.9h0.9v0.9c0.2-0.3,0.4-0.5,0.7-0.7c0.3-0.2,0.6-0.3,1-0.3c0.2,0,0.4,0,0.6,0.1
				c0.2,0.1,0.3,0.2,0.4,0.3c0.1,0.1,0.2,0.3,0.3,0.6c0.2-0.3,0.4-0.5,0.7-0.7c0.3-0.2,0.6-0.3,1-0.3c0.3,0,0.7,0.1,0.9,0.3
				c0.3,0.2,0.4,0.6,0.4,1.1v3.6h-0.9v-3.4c0-0.3-0.1-0.5-0.2-0.7c-0.1-0.1-0.3-0.2-0.5-0.2c-0.2,0-0.4,0.1-0.7,0.2
				c-0.2,0.1-0.5,0.4-0.8,0.8v3.3h-0.9v-3.4c0-0.3-0.1-0.6-0.2-0.7c-0.1-0.1-0.3-0.2-0.5-0.2c-0.2,0-0.4,0.1-0.6,0.2
				c-0.2,0.1-0.5,0.4-0.8,0.8v3.3H137.9z"/>
			<path fill="#095AAB" d="M149.1,36.7c-0.3,0.2-0.5,0.4-0.8,0.6c-0.3,0.1-0.5,0.2-0.8,0.2c-0.4,0-0.7-0.1-1-0.3
				c-0.3-0.2-0.5-0.6-0.5-1c0-0.5,0.2-0.9,0.6-1.2c0.4-0.3,1.1-0.5,2-0.5h0.2v-0.6c0-0.2,0-0.4-0.1-0.5c-0.1-0.1-0.2-0.2-0.3-0.3
				c-0.1-0.1-0.3-0.1-0.5-0.1c-0.5,0-1,0.1-1.5,0.4v-0.7c0.6-0.2,1.2-0.4,1.7-0.4c0.3,0,0.6,0,0.8,0.1c0.2,0.1,0.4,0.2,0.6,0.4
				c0.1,0.2,0.2,0.5,0.2,1v2.2c0,0.2,0,0.4,0.1,0.5c0,0.1,0.1,0.2,0.2,0.2c0.1,0,0.2,0.1,0.2,0.1c0,0,0.1,0,0.2,0l0.1,0.5
				c-0.2,0.1-0.4,0.1-0.7,0.1c-0.2,0-0.3-0.1-0.5-0.2C149.3,37.2,149.1,37,149.1,36.7z M148.9,36.2V35l-0.3,0
				c-0.5,0-0.9,0.1-1.2,0.3S147,35.7,147,36c0,0.2,0.1,0.4,0.2,0.5c0.2,0.1,0.3,0.2,0.6,0.2c0.2,0,0.4,0,0.6-0.1
				C148.5,36.5,148.7,36.4,148.9,36.2z"/>
			<path fill="#095AAB" d="M154,37.4c-0.3,0.1-0.5,0.1-0.7,0.1c-0.4,0-0.8-0.1-1-0.4c-0.3-0.3-0.4-0.6-0.4-1.1v-2.9h-0.6v-0.7h0.6
				v-0.9l0.9-0.1v1h1.3v0.7h-1.3v2.7c0,0.3,0.1,0.6,0.2,0.7c0.1,0.1,0.3,0.2,0.6,0.2c0.1,0,0.3,0,0.4-0.1V37.4z"/>
			<path fill="#095AAB" d="M155.2,31.6v-0.9h0.9v0.9H155.2z M155.2,37.4v-4.9h0.9v4.9H155.2z"/>
			<path fill="#095AAB" d="M161.3,37.2c-0.6,0.2-1.1,0.3-1.5,0.3c-0.4,0-0.8-0.1-1.2-0.4c-0.4-0.2-0.6-0.5-0.8-0.9
				c-0.2-0.4-0.3-0.8-0.3-1.3c0-0.7,0.2-1.3,0.6-1.8c0.4-0.5,1-0.7,1.8-0.7c0.4,0,0.8,0.1,1.3,0.2v0.7c-0.5-0.1-0.9-0.2-1.2-0.2
				c-0.5,0-0.9,0.2-1.1,0.6c-0.3,0.4-0.4,0.8-0.4,1.3c0,0.6,0.1,1,0.4,1.3c0.3,0.3,0.6,0.5,1.1,0.5c0.4,0,0.8-0.1,1.2-0.3V37.2z"/>
			<path fill="#095AAB" d="M166,37.2v-0.9c0.5,0.2,0.9,0.4,1.2,0.4c0.2,0.1,0.5,0.1,0.7,0.1c0.4,0,0.7-0.1,0.9-0.3
				c0.2-0.2,0.3-0.5,0.3-0.8c0-0.2-0.1-0.4-0.2-0.6c-0.1-0.2-0.4-0.4-0.9-0.7l-0.5-0.3c-0.6-0.3-1-0.7-1.2-1c-0.2-0.3-0.3-0.6-0.3-1
				c0-0.3,0.1-0.6,0.3-0.9c0.2-0.3,0.4-0.5,0.7-0.7c0.3-0.2,0.6-0.2,1.1-0.2c0.5,0,1.1,0.1,1.6,0.3v0.9c-0.5-0.2-0.8-0.3-1-0.4
				c-0.2,0-0.4-0.1-0.6-0.1c-0.4,0-0.7,0.1-0.9,0.3c-0.2,0.2-0.3,0.4-0.3,0.6c0,0.1,0,0.3,0.1,0.4c0.1,0.1,0.2,0.3,0.4,0.4
				c0.1,0.1,0.4,0.2,0.6,0.4l0.5,0.3c0.6,0.4,1,0.7,1.2,1c0.2,0.3,0.3,0.6,0.3,1c0,0.5-0.2,1-0.6,1.4c-0.4,0.4-1,0.6-1.8,0.6
				c-0.2,0-0.5,0-0.7,0C166.8,37.4,166.5,37.4,166,37.2z"/>
			<path fill="#095AAB" d="M173.6,37.4c-0.3,0.1-0.5,0.1-0.7,0.1c-0.4,0-0.8-0.1-1-0.4c-0.3-0.3-0.4-0.6-0.4-1.1v-2.9h-0.6v-0.7h0.6
				v-0.9l0.9-0.1v1h1.3v0.7h-1.3v2.7c0,0.3,0.1,0.6,0.2,0.7c0.1,0.1,0.3,0.2,0.6,0.2c0.1,0,0.3,0,0.4-0.1V37.4z"/>
			<path fill="#095AAB" d="M174.9,37.4v-4.9h0.9v0.9c0.2-0.3,0.4-0.6,0.7-0.8c0.3-0.2,0.6-0.3,0.9-0.3c0.1,0,0.2,0,0.3,0v0.8
				c-0.2-0.1-0.3-0.1-0.4-0.1c-0.3,0-0.5,0.1-0.8,0.3c-0.2,0.2-0.4,0.4-0.6,0.8v3.2H174.9z"/>
			<path fill="#095AAB" d="M182,37.2c-0.6,0.2-1.1,0.3-1.6,0.3c-0.8,0-1.4-0.3-1.8-0.8c-0.4-0.5-0.7-1.1-0.7-1.8
				c0-0.5,0.1-0.9,0.3-1.3c0.2-0.4,0.5-0.7,0.8-0.9c0.3-0.2,0.7-0.3,1.1-0.3c0.6,0,1,0.2,1.4,0.6c0.3,0.4,0.5,1,0.5,1.8l0,0.3h-3.2
				c0,0.4,0.1,0.8,0.3,1c0.1,0.2,0.3,0.4,0.6,0.5c0.2,0.1,0.5,0.2,0.9,0.2c0.2,0,0.4,0,0.6,0c0.2,0,0.5-0.1,0.8-0.3V37.2z
				 M178.9,34.4h2.2c0-0.5-0.1-0.8-0.3-1.1c-0.2-0.2-0.4-0.3-0.8-0.3c-0.4,0-0.6,0.1-0.8,0.3C179,33.6,178.9,33.9,178.9,34.4z"/>
			<path fill="#095AAB" d="M183.3,37.2v-0.8c0.6,0.3,1.1,0.4,1.5,0.4c0.3,0,0.5-0.1,0.6-0.2c0.2-0.1,0.3-0.3,0.3-0.5
				c0-0.1,0-0.3-0.1-0.4c-0.1-0.1-0.3-0.2-0.6-0.4l-0.5-0.2c-0.4-0.2-0.7-0.4-0.9-0.6c-0.2-0.2-0.3-0.5-0.3-0.8c0-0.4,0.1-0.7,0.4-1
				c0.3-0.3,0.7-0.4,1.3-0.4c0.3,0,0.6,0,1,0.1l0.2,0v0.7c-0.5-0.2-0.9-0.2-1.2-0.2c-0.3,0-0.5,0.1-0.6,0.2s-0.2,0.3-0.2,0.4
				c0,0.1,0,0.3,0.1,0.4c0.1,0.1,0.3,0.2,0.5,0.3l0.4,0.2c0.6,0.2,0.9,0.5,1.1,0.7c0.2,0.2,0.2,0.5,0.2,0.8c0,0.3-0.1,0.5-0.2,0.7
				c-0.1,0.2-0.4,0.4-0.6,0.5c-0.3,0.1-0.6,0.2-1,0.2C184.4,37.5,183.9,37.4,183.3,37.2z"/>
			<path fill="#095AAB" d="M187.6,37.2v-0.8c0.6,0.3,1.1,0.4,1.5,0.4c0.3,0,0.5-0.1,0.6-0.2c0.2-0.1,0.3-0.3,0.3-0.5
				c0-0.1,0-0.3-0.1-0.4c-0.1-0.1-0.3-0.2-0.6-0.4l-0.5-0.2c-0.4-0.2-0.7-0.4-0.9-0.6c-0.2-0.2-0.3-0.5-0.3-0.8c0-0.4,0.1-0.7,0.4-1
				c0.3-0.3,0.7-0.4,1.3-0.4c0.3,0,0.6,0,1,0.1l0.2,0v0.7c-0.5-0.2-0.9-0.2-1.2-0.2c-0.3,0-0.5,0.1-0.6,0.2s-0.2,0.3-0.2,0.4
				c0,0.1,0,0.3,0.1,0.4c0.1,0.1,0.3,0.2,0.5,0.3l0.4,0.2c0.6,0.2,0.9,0.5,1.1,0.7s0.2,0.5,0.2,0.8c0,0.3-0.1,0.5-0.2,0.7
				c-0.1,0.2-0.4,0.4-0.6,0.5c-0.3,0.1-0.6,0.2-1,0.2C188.7,37.5,188.2,37.4,187.6,37.2z"/>
			<path fill="#095AAB" d="M195.6,37.4v-6.7h0.8l4.1,5.2v-5.2h0.6v6.7h-0.8l-4.1-5.2v5.2H195.6z"/>
			<path fill="#095AAB" d="M206.5,37.2c-0.6,0.2-1.1,0.3-1.6,0.3c-0.8,0-1.4-0.3-1.8-0.8c-0.4-0.5-0.7-1.1-0.7-1.8
				c0-0.5,0.1-0.9,0.3-1.3c0.2-0.4,0.5-0.7,0.8-0.9c0.3-0.2,0.7-0.3,1.1-0.3c0.6,0,1,0.2,1.4,0.6c0.3,0.4,0.5,1,0.5,1.8l0,0.3h-3.2
				c0,0.4,0.1,0.8,0.3,1c0.1,0.2,0.3,0.4,0.6,0.5c0.2,0.1,0.5,0.2,0.9,0.2c0.2,0,0.4,0,0.6,0c0.2,0,0.5-0.1,0.8-0.3V37.2z
				 M203.4,34.4h2.2c0-0.5-0.1-0.8-0.3-1.1c-0.2-0.2-0.4-0.3-0.8-0.3c-0.4,0-0.6,0.1-0.8,0.3C203.6,33.6,203.5,33.9,203.4,34.4z"/>
			<path fill="#095AAB" d="M210.2,37.4c-0.3,0.1-0.5,0.1-0.7,0.1c-0.4,0-0.8-0.1-1-0.4c-0.3-0.3-0.4-0.6-0.4-1.1v-2.9h-0.6v-0.7h0.6
				v-0.9l0.9-0.1v1h1.3v0.7H209v2.7c0,0.3,0.1,0.6,0.2,0.7c0.1,0.1,0.3,0.2,0.6,0.2c0.1,0,0.3,0,0.4-0.1V37.4z"/>
			<path fill="#095AAB" d="M212.2,37.4l-1.4-4.9h0.9l1.1,3.8l1.2-3.8h0.9l1,3.8l1.2-3.8h0.8l-1.6,4.9h-0.9l-1-3.8l-1.2,3.8H212.2z"
				/>
			<path fill="#095AAB" d="M221.1,37.5c-0.5,0-0.9-0.1-1.2-0.3c-0.3-0.2-0.6-0.5-0.8-0.9c-0.2-0.4-0.3-0.9-0.3-1.4
				c0-0.5,0.1-0.9,0.3-1.3s0.5-0.7,0.8-0.9c0.4-0.2,0.8-0.3,1.3-0.3c0.5,0,0.9,0.1,1.2,0.3c0.3,0.2,0.6,0.5,0.8,0.9
				c0.2,0.4,0.3,0.9,0.3,1.4c0,0.5-0.1,0.9-0.3,1.3c-0.2,0.4-0.5,0.7-0.8,0.9C222,37.4,221.6,37.5,221.1,37.5z M221.1,36.8
				c0.4,0,0.8-0.2,1-0.5c0.2-0.3,0.4-0.8,0.4-1.4c0-0.6-0.1-1.1-0.4-1.4c-0.2-0.3-0.6-0.5-1-0.5s-0.8,0.2-1,0.5
				c-0.2,0.3-0.4,0.8-0.4,1.4c0,0.6,0.1,1.1,0.4,1.4C220.3,36.6,220.7,36.8,221.1,36.8z"/>
			<path fill="#095AAB" d="M224.8,37.4v-4.9h0.9v0.9c0.2-0.3,0.4-0.6,0.7-0.8c0.3-0.2,0.6-0.3,0.9-0.3c0.1,0,0.2,0,0.3,0v0.8
				c-0.2-0.1-0.3-0.1-0.4-0.1c-0.3,0-0.5,0.1-0.8,0.3c-0.2,0.2-0.4,0.4-0.6,0.8v3.2H224.8z"/>
			<path fill="#095AAB" d="M228.6,37.4v-7.1h0.9v4.6l2.1-2.4h1l-2,2.3l2.4,2.6h-1.1l-2.3-2.5v2.5H228.6z"/>
		</g>
		<g>
			<path fill="#095AAB" d="M119.6,26.8v-6h-2.4v-0.7h5.7v0.7h-2.4v6H119.6z"/>
			<path fill="#095AAB" d="M123.9,26.8v-7.1h0.9v3.1c0.2-0.3,0.5-0.6,0.8-0.8c0.3-0.2,0.6-0.3,0.9-0.3c0.4,0,0.8,0.1,1,0.4
				c0.3,0.3,0.4,0.6,0.4,1.1v3.5H127v-3.2c0-0.3,0-0.6-0.1-0.7c-0.1-0.1-0.1-0.2-0.3-0.3c-0.1-0.1-0.2-0.1-0.3-0.1
				c-0.2,0-0.5,0.1-0.7,0.2c-0.3,0.1-0.5,0.4-0.8,0.9v3.2H123.9z"/>
			<path fill="#095AAB" d="M133.3,26.6c-0.6,0.2-1.1,0.3-1.6,0.3c-0.8,0-1.4-0.3-1.8-0.8c-0.4-0.5-0.7-1.1-0.7-1.8
				c0-0.5,0.1-0.9,0.3-1.3c0.2-0.4,0.5-0.7,0.8-0.9s0.7-0.3,1.1-0.3c0.6,0,1,0.2,1.4,0.6c0.3,0.4,0.5,1,0.5,1.8l0,0.3h-3.2
				c0,0.4,0.1,0.8,0.3,1c0.1,0.2,0.3,0.4,0.6,0.5c0.2,0.1,0.5,0.2,0.9,0.2c0.2,0,0.4,0,0.6,0c0.2,0,0.5-0.1,0.8-0.3V26.6z
				 M130.2,23.8h2.2c0-0.5-0.1-0.8-0.3-1.1c-0.2-0.2-0.4-0.3-0.8-0.3c-0.4,0-0.6,0.1-0.8,0.3C130.3,23,130.2,23.3,130.2,23.8z"/>
			<path fill="#095AAB" d="M148.2,26.1c-0.3,0.2-0.5,0.4-0.8,0.6c-0.3,0.1-0.5,0.2-0.8,0.2c-0.4,0-0.7-0.1-1-0.3
				c-0.3-0.2-0.5-0.6-0.5-1c0-0.5,0.2-0.9,0.6-1.2c0.4-0.3,1.1-0.5,2-0.5h0.2v-0.6c0-0.2,0-0.4-0.1-0.5c-0.1-0.1-0.2-0.2-0.3-0.3
				s-0.3-0.1-0.5-0.1c-0.5,0-1,0.1-1.5,0.4v-0.7c0.6-0.2,1.2-0.4,1.7-0.4c0.3,0,0.6,0,0.8,0.1c0.2,0.1,0.4,0.2,0.6,0.4
				c0.1,0.2,0.2,0.5,0.2,1v2.2c0,0.2,0,0.4,0.1,0.5c0,0.1,0.1,0.2,0.2,0.2c0.1,0,0.2,0.1,0.2,0.1c0,0,0.1,0,0.2,0l0.1,0.5
				c-0.2,0.1-0.4,0.1-0.7,0.1c-0.2,0-0.3-0.1-0.5-0.2C148.4,26.6,148.3,26.4,148.2,26.1z M148.1,25.6v-1.3l-0.3,0
				c-0.5,0-0.9,0.1-1.2,0.3c-0.3,0.2-0.5,0.4-0.5,0.7c0,0.2,0.1,0.4,0.2,0.5c0.2,0.1,0.3,0.2,0.6,0.2c0.2,0,0.4,0,0.6-0.1
				C147.7,25.9,147.9,25.8,148.1,25.6z"/>
			<path fill="#095AAB" d="M153.1,26.8c-0.3,0.1-0.5,0.1-0.7,0.1c-0.4,0-0.8-0.1-1-0.4c-0.3-0.3-0.4-0.6-0.4-1.1v-2.9h-0.6v-0.7h0.6
				V21l0.9-0.1v1h1.3v0.7h-1.3v2.7c0,0.3,0.1,0.6,0.2,0.7c0.1,0.1,0.3,0.2,0.6,0.2c0.1,0,0.3,0,0.4-0.1V26.8z"/>
			<path fill="#095AAB" d="M154.4,21v-0.9h0.9V21H154.4z M154.4,26.8v-4.9h0.9v4.9H154.4z"/>
			<path fill="#095AAB" d="M159.2,26.9c-0.5,0-0.9-0.1-1.2-0.3c-0.3-0.2-0.6-0.5-0.8-0.9c-0.2-0.4-0.3-0.9-0.3-1.4
				c0-0.5,0.1-0.9,0.3-1.3s0.5-0.7,0.8-0.9c0.4-0.2,0.8-0.3,1.3-0.3c0.5,0,0.9,0.1,1.2,0.3c0.3,0.2,0.6,0.5,0.8,0.9
				c0.2,0.4,0.3,0.9,0.3,1.4c0,0.5-0.1,0.9-0.3,1.3c-0.2,0.4-0.5,0.7-0.8,0.9C160.1,26.8,159.7,26.9,159.2,26.9z M159.2,26.2
				c0.4,0,0.8-0.2,1-0.5c0.2-0.3,0.4-0.8,0.4-1.4c0-0.6-0.1-1.1-0.4-1.4c-0.2-0.3-0.6-0.5-1-0.5c-0.4,0-0.8,0.2-1,0.5
				c-0.2,0.3-0.4,0.8-0.4,1.4c0,0.6,0.1,1.1,0.4,1.4C158.4,26,158.7,26.2,159.2,26.2z"/>
			<path fill="#095AAB" d="M162.9,26.8v-4.9h0.9v0.9c0.2-0.3,0.5-0.6,0.8-0.8c0.3-0.2,0.6-0.3,0.9-0.3c0.4,0,0.8,0.1,1,0.4
				c0.3,0.3,0.4,0.6,0.4,1.1v3.5H166v-3.2c0-0.3,0-0.6-0.1-0.7c-0.1-0.1-0.1-0.2-0.3-0.3c-0.1-0.1-0.2-0.1-0.3-0.1
				c-0.2,0-0.5,0.1-0.7,0.2c-0.3,0.1-0.5,0.4-0.8,0.9v3.2H162.9z"/>
			<path fill="#095AAB" d="M171.5,26.1c-0.3,0.2-0.5,0.4-0.8,0.6c-0.3,0.1-0.5,0.2-0.8,0.2c-0.4,0-0.7-0.1-1-0.3
				c-0.3-0.2-0.5-0.6-0.5-1c0-0.5,0.2-0.9,0.6-1.2c0.4-0.3,1.1-0.5,2-0.5h0.2v-0.6c0-0.2,0-0.4-0.1-0.5c-0.1-0.1-0.2-0.2-0.3-0.3
				s-0.3-0.1-0.5-0.1c-0.5,0-1,0.1-1.5,0.4v-0.7c0.6-0.2,1.2-0.4,1.7-0.4c0.3,0,0.6,0,0.8,0.1c0.2,0.1,0.4,0.2,0.6,0.4
				c0.1,0.2,0.2,0.5,0.2,1v2.2c0,0.2,0,0.4,0.1,0.5c0,0.1,0.1,0.2,0.2,0.2c0.1,0,0.2,0.1,0.2,0.1c0,0,0.1,0,0.2,0l0.1,0.5
				c-0.2,0.1-0.4,0.1-0.7,0.1c-0.2,0-0.3-0.1-0.5-0.2C171.7,26.6,171.6,26.4,171.5,26.1z M171.4,25.6v-1.3l-0.3,0
				c-0.5,0-0.9,0.1-1.2,0.3c-0.3,0.2-0.5,0.4-0.5,0.7c0,0.2,0.1,0.4,0.2,0.5c0.2,0.1,0.3,0.2,0.6,0.2c0.2,0,0.4,0,0.6-0.1
				C171,25.9,171.2,25.8,171.4,25.6z"/>
			<path fill="#095AAB" d="M174,26.8v-7.1h0.9v7.1H174z"/>
			<path fill="#095AAB" d="M185.6,26.4c-0.3,0.1-0.5,0.2-0.7,0.3c-0.2,0.1-0.4,0.1-0.7,0.1c-0.2,0-0.5,0-0.8,0c-1.1,0-2-0.3-2.5-1
				s-0.8-1.5-0.8-2.5c0-1,0.3-1.9,0.8-2.5c0.5-0.7,1.4-1,2.5-1c0.6,0,1.3,0.1,2.1,0.3v0.9c-0.7-0.2-1.1-0.4-1.4-0.4
				c-0.3,0-0.5-0.1-0.7-0.1c-0.8,0-1.4,0.3-1.7,0.8c-0.4,0.5-0.5,1.2-0.5,2c0,0.8,0.2,1.5,0.6,2c0.4,0.5,1,0.8,1.8,0.8
				c0.2,0,0.4,0,0.6-0.1c0.2,0,0.4-0.1,0.6-0.2c0.2-0.1,0.5-0.2,0.8-0.4V26.4z"/>
			<path fill="#095AAB" d="M187,26.8v-7.1h0.9v3.1c0.2-0.3,0.5-0.6,0.8-0.8c0.3-0.2,0.6-0.3,0.9-0.3c0.4,0,0.8,0.1,1,0.4
				c0.3,0.3,0.4,0.6,0.4,1.1v3.5h-0.9v-3.2c0-0.3,0-0.6-0.1-0.7c-0.1-0.1-0.1-0.2-0.3-0.3c-0.1-0.1-0.2-0.1-0.3-0.1
				c-0.2,0-0.5,0.1-0.7,0.2c-0.3,0.1-0.5,0.4-0.8,0.9v3.2H187z"/>
			<path fill="#095AAB" d="M193.1,21v-0.9h0.9V21H193.1z M193.1,26.8v-4.9h0.9v4.9H193.1z"/>
			<path fill="#095AAB" d="M196,26.8v-7.1h0.9v7.1H196z"/>
			<path fill="#095AAB" d="M138.6,26.8v-6.7h0.8l4.1,5.2v-5.2h0.6v6.7h-0.8l-4.1-5.2v5.2H138.6z"/>
			<path fill="#095AAB" d="M202.1,26.8v-0.9c-0.2,0.3-0.4,0.6-0.7,0.8c-0.3,0.2-0.6,0.3-1,0.3c-0.6,0-1.1-0.2-1.4-0.7
				c-0.3-0.4-0.5-1-0.5-1.7c0-0.8,0.2-1.4,0.6-1.9c0.4-0.5,0.9-0.8,1.5-0.8c0.2,0,0.4,0,0.5,0.1s0.3,0.1,0.5,0.2
				c0.1,0.1,0.3,0.2,0.4,0.4v-2.8h0.9v7.1H202.1z M202.1,23c-0.3-0.3-0.6-0.4-0.7-0.5s-0.4-0.1-0.6-0.1c-0.4,0-0.8,0.2-1,0.5
				c-0.2,0.4-0.3,0.8-0.3,1.4c0,0.5,0.1,1,0.3,1.3c0.2,0.3,0.5,0.5,0.9,0.5c0.2,0,0.5-0.1,0.7-0.2c0.2-0.1,0.5-0.3,0.7-0.6V23z"/>
		</g>
	</g>
	<g>
		<path fill="#095AAB" d="M68.8,37.5V18.8l14.3,14.6V19.6H85v18.1L70.7,23.4v14.2H68.8z"/>
		<path fill="#095AAB" d="M59.1,37.8c-1.4,0-2.7-0.4-3.7-1.2c-1-0.7-1.8-1.7-2.3-3.1l1.6-0.5c1,2,2.4,2.9,4.3,2.9
			c1,0,1.8-0.3,2.5-0.9c0.7-0.6,1-1.4,1-2.3c0-0.6-0.2-1.1-0.5-1.7c-0.3-0.5-0.8-1-1.3-1.3c-0.5-0.3-1.2-0.7-2.3-1.1
			c-1-0.4-1.7-0.8-2.3-1.1c-0.5-0.3-0.9-0.7-1.3-1.1c-0.4-0.4-0.6-0.9-0.8-1.3c-0.2-0.4-0.2-0.9-0.2-1.4c0-1.2,0.5-2.1,1.4-3
			c1-0.8,2.1-1.3,3.5-1.3c0.9,0,1.9,0.2,2.8,0.6c0.8,0.3,1.5,0.8,2.1,1.5l-1.4,1.1c-0.4-0.4-0.9-0.8-1.2-1c-0.5-0.3-1.2-0.5-2.1-0.5
			c-1,0-1.8,0.2-2.4,0.7c-0.7,0.5-1,1.1-1,1.9c0,0.7,0.3,1.3,0.9,1.8C57,26,57.8,26.4,59,27c1.1,0.5,2,0.9,2.6,1.3
			c0.6,0.4,1.1,0.8,1.5,1.3c0.4,0.5,0.7,1,0.9,1.5c0.2,0.5,0.3,1.1,0.3,1.7c0,1.4-0.5,2.5-1.5,3.5C61.7,37.3,60.6,37.8,59.1,37.8z"
			/>
		<path fill="#095AAB" d="M39.8,21.4v-1.8H50v1.8h-4.2v16.1H44V21.4H39.8z"/>
		<path fill="#095AAB" d="M35.8,24.3c-0.7-1-1.6-1.8-2.5-2.3c-1-0.5-2.1-0.8-3.3-0.8c-1.3,0-2.5,0.3-3.6,1c-1.1,0.7-2,1.6-2.6,2.7
			c-0.6,1.1-0.9,2.4-0.9,3.8c0,2.1,0.7,3.9,2,5.4c1.4,1.4,3.1,2.2,5.1,2.2c2.3,0,4.2-1,5.7-2.9l0,2.5c-0.5,0.4-1.1,0.8-1.7,1.1
			C32.9,37.7,31.5,38,30,38c-2.8,0-5.1-1-6.7-3.1c-1.4-1.7-2.1-3.8-2.1-6.3c0-2.6,0.8-4.7,2.5-6.5c1.7-1.8,3.8-2.6,6.3-2.6
			c1.5,0,2.9,0.3,4.1,1c0.6,0.3,1.2,0.7,1.7,1.2L35.8,24.3z"/>
		<path fill="#095AAB" d="M0.5,37.5V18.8l14.3,14.6V19.6h1.8v18.1L2.4,23.4v14.2H0.5z"/>
	</g>
	<linearGradient id="SVGID_1_" gradientUnits="userSpaceOnUse" x1="91.8903" y1="30.5669" x2="188.2858" y2="2.9443">
		<stop  offset="0" style="stop-color:#EEF1F2"/>
		<stop  offset="0.5913" style="stop-color:#FDE932"/>
	</linearGradient>
	<path fill="url(#SVGID_1_)" d="M92.3,42c8.6-22.8,30.5-39.1,56.2-39.1c15.9,0,30.4,6.3,41.1,16.4C178.6,7.8,163.2,0.7,146.2,0.7
		c-26.5,0-49,17.3-56.9,41.3H92.3z"/>
</g>
</svg>
