<?xml version="1.0" encoding="utf-8"?>
<!-- Generator: Adobe Illustrator 21.0.2, SVG Export Plug-In . SVG Version: 6.00 Build 0)  -->
<svg version="1.2" baseProfile="tiny" id="Layer_1" xmlns="http://www.w3.org/2000/svg" xmlns:xlink="http://www.w3.org/1999/xlink"
	 x="0px" y="0px" viewBox="0 0 233.4 33.1" overflow="scroll" xml:space="preserve">
<g id="ovc">
	<g>
		<g>
			<path fill="#115495" d="M208.5,28.3v1.9c0,0.1,0,0.2,0.1,0.2s0.1,0.1,0.3,0.1v0.1h-2.1v-0.1c0.1,0,0.2-0.1,0.3-0.1
				s0.1-0.1,0.1-0.3v-4.8c0-0.1,0-0.2-0.1-0.2c0-0.1-0.1-0.1-0.3-0.1v-0.1h3.8c0.5,0,0.9,0,1.1,0.1s0.5,0.1,0.7,0.3
				c0.4,0.3,0.6,0.7,0.6,1.4c0,0.5-0.1,0.8-0.4,1.1c-0.3,0.3-0.7,0.5-1.3,0.6l1.1,1.5c0.2,0.3,0.4,0.5,0.5,0.6
				c0.1,0.1,0.3,0.2,0.4,0.2v0.1H211v-0.1c0.2,0,0.3-0.1,0.3-0.2c0-0.1-0.1-0.2-0.2-0.4l-1.2-1.7H208.5z M208.5,27.3h2.1
				c0.3,0,0.6,0,0.7-0.1c0.2-0.1,0.3-0.3,0.3-0.6c0-0.2-0.1-0.4-0.2-0.5c-0.2-0.1-0.4-0.1-0.8-0.1h-2.1V27.3z"/>
			<path fill="#115495" d="M216.2,25.4v4.8c0,0.1,0,0.2,0.1,0.2s0.1,0.1,0.3,0.1v0.1h-2.1v-0.1c0.1,0,0.2-0.1,0.3-0.1
				s0.1-0.1,0.1-0.3v-4.8c0-0.1,0-0.2-0.1-0.2c0-0.1-0.1-0.1-0.3-0.1v-0.1h2.1V25c-0.1,0-0.2,0.1-0.3,0.1
				C216.2,25.2,216.2,25.3,216.2,25.4z"/>
			<path fill="#115495" d="M221.5,30.7l-2.1-3.9v3.3c0,0.1,0,0.2,0.1,0.2c0,0.1,0.1,0.1,0.3,0.1v0.1h-2v-0.1c0.1,0,0.2-0.1,0.3-0.1
				s0.1-0.1,0.1-0.3v-4.8c0-0.1,0-0.2-0.1-0.2c0-0.1-0.1-0.1-0.3-0.1v-0.1h2.5V25c-0.2,0.1-0.2,0.2-0.2,0.3c0,0.1,0.1,0.3,0.2,0.5
				l1.5,2.7l1.5-2.6c0.2-0.3,0.3-0.5,0.3-0.6c0-0.1-0.1-0.2-0.3-0.3v-0.1h2.4V25c-0.1,0-0.2,0.1-0.3,0.1c0,0.1-0.1,0.1-0.1,0.2v4.8
				c0,0.1,0,0.2,0.1,0.3c0,0.1,0.1,0.1,0.3,0.1v0.1h-2.1v-0.1c0.1,0,0.2-0.1,0.3-0.1c0.1-0.1,0.1-0.1,0.1-0.3v-3.3L221.5,30.7z"/>
			<path fill="#115495" d="M228.8,28.2v1.4h3.7c0.1,0,0.2,0,0.2-0.1c0.1,0,0.1-0.1,0.1-0.3h0.1v1.7h-0.1c0-0.1-0.1-0.2-0.1-0.3
				c-0.1-0.1-0.1-0.1-0.3-0.1H227v-0.1c0.1,0,0.2-0.1,0.3-0.1s0.1-0.1,0.1-0.3v-4.8c0-0.1,0-0.2-0.1-0.2c0-0.1-0.1-0.1-0.3-0.1v-0.1
				h5.3c0.1,0,0.2,0,0.3-0.1s0.1-0.1,0.1-0.3h0.1v1.7h-0.1c0-0.1-0.1-0.2-0.1-0.3s-0.1-0.1-0.3-0.1h-3.6v1.3h2.2
				c0.1,0,0.2,0,0.2-0.1s0.1-0.1,0.1-0.3h0.1v1.7h-0.1c0-0.1-0.1-0.2-0.1-0.3c-0.1,0-0.1-0.1-0.3-0.1H228.8z"/>
		</g>
		<g>
			<path fill="#115495" d="M203.5,26.4l1.8,2.7l-0.2,0.2c-0.2-0.2-0.3-0.2-0.4-0.2c-0.1,0-0.4,0.1-0.9,0.4c-1.1,0.6-2,1-2.7,1.2
				c-0.7,0.2-1.6,0.3-2.6,0.3c-2,0-3.7-0.5-4.9-1.4c-0.8-0.6-1.4-1.2-1.8-2.1c-0.5-0.9-0.8-2-0.8-3.1c0-1.5,0.5-2.9,1.4-4
				c1.4-1.7,3.4-2.6,6.2-2.6c1,0,1.9,0.1,2.6,0.3c0.7,0.2,1.6,0.6,2.7,1.3c0.5,0.3,0.8,0.4,0.9,0.4c0.1,0,0.3-0.1,0.4-0.2l0.2,0.2
				l-1.8,2.7l-0.3-0.2c0-0.1,0-0.2,0-0.3c0-0.2-0.1-0.3-0.2-0.5c-0.2-0.2-0.4-0.3-0.8-0.6c-1.1-0.6-2.3-0.9-3.5-0.9
				c-1.5,0-2.6,0.4-3.5,1.1c-1,0.9-1.5,2-1.5,3.3c0,1.4,0.5,2.5,1.5,3.3c0.9,0.7,2,1.1,3.5,1.1c1.2,0,2.4-0.3,3.5-0.9
				c0.4-0.2,0.7-0.4,0.8-0.6c0.2-0.2,0.2-0.3,0.2-0.5c0-0.1,0-0.1,0-0.2L203.5,26.4z"/>
		</g>
		<g>
			<path fill="#115495" d="M131.9,25.4v4.8c0,0.1,0,0.2,0.1,0.2s0.1,0.1,0.3,0.1v0.1h-2.1v-0.1c0.1,0,0.2-0.1,0.3-0.1
				s0.1-0.1,0.1-0.3v-4.8c0-0.1,0-0.2-0.1-0.2c0-0.1-0.1-0.1-0.3-0.1v-0.1h2.1V25c-0.1,0-0.2,0.1-0.3,0.1
				C131.9,25.2,131.9,25.3,131.9,25.4z"/>
			<path fill="#115495" d="M139,28.6l0.9,1.3l-0.1,0.1c-0.1-0.1-0.2-0.1-0.2-0.1c-0.1,0-0.2,0.1-0.4,0.2c-0.5,0.3-0.9,0.5-1.3,0.6
				s-0.8,0.2-1.3,0.2c-1,0-1.7-0.2-2.3-0.7c-0.3-0.3-0.6-0.6-0.8-1c-0.2-0.4-0.3-0.9-0.3-1.4c0-0.7,0.2-1.3,0.6-1.8
				c0.6-0.8,1.6-1.2,2.9-1.2c0.5,0,0.9,0.1,1.3,0.2c0.4,0.1,0.8,0.3,1.3,0.6c0.2,0.1,0.4,0.2,0.4,0.2c0,0,0.1,0,0.2-0.1l0.1,0.1
				L139,27l-0.1-0.1c0,0,0-0.1,0-0.1c0,0,0-0.1,0-0.1c0-0.2-0.2-0.4-0.7-0.6c-0.4-0.2-0.9-0.3-1.4-0.3c-0.6,0-1.2,0.2-1.6,0.5
				c-0.5,0.4-0.7,0.9-0.7,1.4c0,0.6,0.2,1.1,0.7,1.5c0.4,0.3,0.9,0.5,1.6,0.5c0.5,0,1-0.1,1.5-0.4c0.4-0.2,0.6-0.4,0.6-0.5
				c0,0,0-0.1,0-0.1L139,28.6z"/>
			<path fill="#115495" d="M144.4,25.9v4.3c0,0.1,0,0.2,0.1,0.2c0,0.1,0.1,0.1,0.3,0.1v0.1h-2.1v-0.1c0.1,0,0.2-0.1,0.3-0.1
				c0.1-0.1,0.1-0.1,0.1-0.3v-4.3h-1.7c-0.1,0-0.2,0-0.3,0.1c-0.1,0.1-0.1,0.1-0.1,0.3h-0.1v-1.7h0.1c0,0.1,0.1,0.2,0.1,0.3
				s0.1,0.1,0.3,0.1h4.9c0.1,0,0.2,0,0.3-0.1s0.1-0.1,0.1-0.3h0.1v1.7h-0.1c0-0.1-0.1-0.2-0.1-0.3c-0.1,0-0.1-0.1-0.3-0.1H144.4z"/>
			<path fill="#115495" d="M149.4,25.4v4.8c0,0.1,0,0.2,0.1,0.2s0.1,0.1,0.3,0.1v0.1h-2.1v-0.1c0.1,0,0.2-0.1,0.3-0.1
				s0.1-0.1,0.1-0.3v-4.8c0-0.1,0-0.2-0.1-0.2c0-0.1-0.1-0.1-0.3-0.1v-0.1h2.1V25c-0.1,0-0.2,0.1-0.3,0.1
				C149.4,25.2,149.4,25.3,149.4,25.4z"/>
			<path fill="#115495" d="M154.7,30.7l-2.1-3.9v3.3c0,0.1,0,0.2,0.1,0.2c0,0.1,0.1,0.1,0.3,0.1v0.1h-2v-0.1c0.1,0,0.2-0.1,0.3-0.1
				s0.1-0.1,0.1-0.3v-4.8c0-0.1,0-0.2-0.1-0.2c0-0.1-0.1-0.1-0.3-0.1v-0.1h2.5V25c-0.2,0.1-0.2,0.2-0.2,0.3c0,0.1,0.1,0.3,0.2,0.5
				l1.5,2.7l1.5-2.6c0.2-0.3,0.3-0.5,0.3-0.6c0-0.1-0.1-0.2-0.3-0.3v-0.1h2.4V25c-0.1,0-0.2,0.1-0.3,0.1c0,0.1-0.1,0.1-0.1,0.2v4.8
				c0,0.1,0,0.2,0.1,0.3c0,0.1,0.1,0.1,0.3,0.1v0.1h-2.1v-0.1c0.1,0,0.2-0.1,0.3-0.1c0.1-0.1,0.1-0.1,0.1-0.3v-3.3L154.7,30.7z"/>
			<path fill="#115495" d="M165.7,25.4l-0.7,1.4l-0.1-0.1c0-0.1,0-0.2-0.1-0.3c-0.2-0.2-0.5-0.3-0.9-0.4c-0.4-0.1-0.8-0.2-1.2-0.2
				c-0.3,0-0.6,0-0.9,0.1c-0.4,0.1-0.6,0.3-0.6,0.6c0,0.2,0.1,0.3,0.3,0.4c0.2,0.1,0.5,0.1,1.1,0.2l0.8,0.1c0.7,0.1,1.3,0.2,1.7,0.4
				c0.2,0.1,0.4,0.3,0.5,0.5c0.2,0.3,0.3,0.6,0.3,0.9c0,0.6-0.3,1.1-0.8,1.4c-0.5,0.3-1.2,0.5-2.1,0.5c-0.9,0-1.7-0.2-2.6-0.6
				c-0.1,0-0.1,0-0.1,0c-0.1,0-0.1,0-0.2,0.1l-0.1-0.1l0.6-1.4l0.1,0.1c0,0,0,0,0,0c0,0.1,0,0.2,0.1,0.2c0.2,0.2,0.5,0.3,0.9,0.4
				c0.4,0.1,0.9,0.2,1.3,0.2c0.4,0,0.7,0,1-0.1c0.4-0.1,0.5-0.3,0.5-0.6c0-0.2-0.1-0.4-0.4-0.4c-0.2-0.1-0.5-0.1-0.9-0.1l-0.8-0.1
				c-0.4,0-0.8-0.1-1-0.1s-0.4-0.1-0.6-0.2c-0.2-0.1-0.4-0.3-0.5-0.6S160,27,160,26.7c0-0.6,0.3-1.1,0.8-1.5
				c0.5-0.3,1.1-0.5,1.9-0.5c0.4,0,0.8,0,1.1,0.1c0.3,0.1,0.8,0.2,1.2,0.5c0.1,0.1,0.2,0.1,0.3,0.1c0.1,0,0.1,0,0.2-0.1L165.7,25.4z
				"/>
			<path fill="#115495" d="M175.3,24.7c0.9,0,1.7,0.2,2.3,0.7c0.7,0.6,1.1,1.4,1.1,2.4c0,1-0.4,1.7-1.1,2.3
				c-0.6,0.5-1.4,0.7-2.3,0.7c-0.9,0-1.7-0.2-2.3-0.7c-0.7-0.6-1.1-1.4-1.1-2.3c0-1,0.4-1.8,1.1-2.4C173.6,25,174.4,24.7,175.3,24.7
				z M175.3,25.8c-0.6,0-1.1,0.2-1.5,0.6c-0.4,0.4-0.5,0.8-0.5,1.4c0,0.5,0.2,1,0.5,1.4c0.4,0.4,0.9,0.6,1.5,0.6
				c0.6,0,1.1-0.2,1.5-0.6c0.4-0.4,0.5-0.8,0.5-1.3c0-0.6-0.2-1-0.5-1.4C176.4,26,175.9,25.9,175.3,25.8z"/>
			<path fill="#115495" d="M181.4,28.2v2c0,0.1,0,0.2,0.1,0.2s0.1,0.1,0.3,0.1v0.1h-2.1v-0.1c0.1,0,0.2-0.1,0.3-0.1s0.1-0.1,0.1-0.3
				v-4.8c0-0.1,0-0.2-0.1-0.2c0-0.1-0.1-0.1-0.3-0.1v-0.1h5.3c0.1,0,0.2,0,0.3-0.1s0.1-0.1,0.1-0.3h0.1v1.7h-0.1
				c0-0.1-0.1-0.2-0.1-0.3c-0.1,0-0.1-0.1-0.3-0.1h-3.5v1.3h2.2c0.1,0,0.2,0,0.3-0.1c0.1,0,0.1-0.1,0.1-0.3h0.1v1.7H184
				c0-0.1-0.1-0.2-0.1-0.3c-0.1,0-0.1-0.1-0.3-0.1H181.4z"/>
		</g>
		<g>
			<path fill="#115495" d="M122.8,27.1l3.4-7.5c0.1-0.3,0.2-0.6,0.2-0.7c0-0.3-0.2-0.4-0.6-0.5v-0.3h4.4v0.3c-0.3,0-0.5,0.1-0.6,0.2
				s-0.3,0.5-0.6,1l-4.4,9.5c-0.2,0.4-0.3,0.7-0.3,0.8c0,0.3,0.2,0.5,0.6,0.6v0.3h-4.4v-0.3c0.4-0.1,0.6-0.2,0.6-0.6
				c0-0.1-0.1-0.4-0.3-0.8l-4.4-9.5c-0.3-0.6-0.4-0.9-0.6-1s-0.3-0.2-0.6-0.2v-0.3h4.5v0.3c-0.4,0.1-0.6,0.3-0.6,0.5
				c0,0.2,0.1,0.4,0.2,0.7L122.8,27.1z"/>
		</g>
		<g>
			<path fill="#115495" d="M54.7,28.2v2c0,0.1,0,0.2,0.1,0.2s0.1,0.1,0.3,0.1v0.1h-2.1v-0.1c0.1,0,0.2-0.1,0.3-0.1s0.1-0.1,0.1-0.3
				v-4.8c0-0.1,0-0.2-0.1-0.2c0-0.1-0.1-0.1-0.3-0.1v-0.1h5.3c0.1,0,0.2,0,0.3-0.1s0.1-0.1,0.1-0.3h0.1v1.7h-0.1
				c0-0.1-0.1-0.2-0.1-0.3c-0.1,0-0.1-0.1-0.3-0.1h-3.5v1.3h2.2c0.1,0,0.2,0,0.3-0.1c0.1,0,0.1-0.1,0.1-0.3h0.1v1.7h-0.1
				c0-0.1-0.1-0.2-0.1-0.3c-0.1,0-0.1-0.1-0.3-0.1H54.7z"/>
			<path fill="#115495" d="M61,28.2v2c0,0.1,0,0.2,0.1,0.2s0.1,0.1,0.3,0.1v0.1h-2.1v-0.1c0.1,0,0.2-0.1,0.3-0.1s0.1-0.1,0.1-0.3
				v-4.8c0-0.1,0-0.2-0.1-0.2c0-0.1-0.1-0.1-0.3-0.1v-0.1h5.3c0.1,0,0.2,0,0.3-0.1s0.1-0.1,0.1-0.3h0.1v1.7H65
				c0-0.1-0.1-0.2-0.1-0.3c-0.1,0-0.1-0.1-0.3-0.1H61v1.3h2.2c0.1,0,0.2,0,0.3-0.1c0.1,0,0.1-0.1,0.1-0.3h0.1v1.7h-0.1
				c0-0.1-0.1-0.2-0.1-0.3c-0.1,0-0.1-0.1-0.3-0.1H61z"/>
			<path fill="#115495" d="M67.6,25.4v4.8c0,0.1,0,0.2,0.1,0.2s0.1,0.1,0.3,0.1v0.1h-2.1v-0.1c0.1,0,0.2-0.1,0.3-0.1
				s0.1-0.1,0.1-0.3v-4.8c0-0.1,0-0.2-0.1-0.2c0-0.1-0.1-0.1-0.3-0.1v-0.1h2.1V25c-0.1,0-0.2,0.1-0.3,0.1
				C67.6,25.2,67.6,25.3,67.6,25.4z"/>
			<path fill="#115495" d="M74.9,28.6l0.9,1.3L75.7,30c-0.1-0.1-0.2-0.1-0.2-0.1c-0.1,0-0.2,0.1-0.4,0.2c-0.5,0.3-0.9,0.5-1.3,0.6
				s-0.8,0.2-1.3,0.2c-1,0-1.7-0.2-2.3-0.7c-0.3-0.3-0.6-0.6-0.8-1c-0.2-0.4-0.3-0.9-0.3-1.4c0-0.7,0.2-1.3,0.6-1.8
				c0.6-0.8,1.6-1.2,2.9-1.2c0.5,0,0.9,0.1,1.3,0.2c0.4,0.1,0.8,0.3,1.3,0.6c0.2,0.1,0.4,0.2,0.4,0.2c0,0,0.1,0,0.2-0.1l0.1,0.1
				L74.9,27l-0.1-0.1c0,0,0-0.1,0-0.1c0,0,0-0.1,0-0.1c0-0.2-0.2-0.4-0.7-0.6c-0.4-0.2-0.9-0.3-1.4-0.3c-0.6,0-1.2,0.2-1.6,0.5
				c-0.5,0.4-0.7,0.9-0.7,1.4c0,0.6,0.2,1.1,0.7,1.5c0.4,0.3,0.9,0.5,1.6,0.5c0.5,0,1-0.1,1.5-0.4c0.4-0.2,0.6-0.4,0.6-0.5
				c0,0,0-0.1,0-0.1L74.9,28.6z"/>
			<path fill="#115495" d="M78.6,28.2v1.4h3.7c0.1,0,0.2,0,0.2-0.1c0.1,0,0.1-0.1,0.1-0.3h0.1v1.7h-0.1c0-0.1-0.1-0.2-0.1-0.3
				c-0.1-0.1-0.1-0.1-0.3-0.1h-5.5v-0.1c0.1,0,0.2-0.1,0.3-0.1s0.1-0.1,0.1-0.3v-4.8c0-0.1,0-0.2-0.1-0.2c0-0.1-0.1-0.1-0.3-0.1
				v-0.1h5.3c0.1,0,0.2,0,0.3-0.1s0.1-0.1,0.1-0.3h0.1v1.7h-0.1c0-0.1-0.1-0.2-0.1-0.3s-0.1-0.1-0.3-0.1h-3.6v1.3h2.2
				c0.1,0,0.2,0,0.2-0.1s0.1-0.1,0.1-0.3h0.1v1.7h-0.1c0-0.1-0.1-0.2-0.1-0.3c-0.1,0-0.1-0.1-0.3-0.1H78.6z"/>
			<path fill="#115495" d="M90.1,28.2v2c0,0.1,0,0.2,0.1,0.2s0.1,0.1,0.3,0.1v0.1h-2.1v-0.1c0.1,0,0.2-0.1,0.3-0.1s0.1-0.1,0.1-0.3
				v-4.8c0-0.1,0-0.2-0.1-0.2c0-0.1-0.1-0.1-0.3-0.1v-0.1h5.3c0.1,0,0.2,0,0.3-0.1s0.1-0.1,0.1-0.3h0.1v1.7H94
				c0-0.1-0.1-0.2-0.1-0.3c-0.1,0-0.1-0.1-0.3-0.1h-3.5v1.3h2.2c0.1,0,0.2,0,0.3-0.1c0.1,0,0.1-0.1,0.1-0.3h0.1v1.7h-0.1
				c0-0.1-0.1-0.2-0.1-0.3c-0.1,0-0.1-0.1-0.3-0.1H90.1z"/>
			<path fill="#115495" d="M98.6,24.7c0.9,0,1.7,0.2,2.3,0.7c0.7,0.6,1.1,1.4,1.1,2.4c0,1-0.4,1.7-1.1,2.3c-0.6,0.5-1.4,0.7-2.3,0.7
				c-0.9,0-1.7-0.2-2.3-0.7c-0.7-0.6-1.1-1.4-1.1-2.3c0-1,0.4-1.8,1.1-2.4C96.9,25,97.6,24.7,98.6,24.7z M98.6,25.8
				c-0.6,0-1.1,0.2-1.5,0.6c-0.4,0.4-0.5,0.8-0.5,1.4c0,0.5,0.2,1,0.5,1.4c0.4,0.4,0.9,0.6,1.5,0.6c0.6,0,1.1-0.2,1.5-0.6
				c0.4-0.4,0.5-0.8,0.5-1.3c0-0.6-0.2-1-0.5-1.4C99.7,26,99.2,25.9,98.6,25.8z"/>
			<path fill="#115495" d="M105,28.3v1.9c0,0.1,0,0.2,0.1,0.2s0.1,0.1,0.3,0.1v0.1h-2.1v-0.1c0.1,0,0.2-0.1,0.3-0.1s0.1-0.1,0.1-0.3
				v-4.8c0-0.1,0-0.2-0.1-0.2c0-0.1-0.1-0.1-0.3-0.1v-0.1h3.8c0.5,0,0.9,0,1.1,0.1s0.5,0.1,0.7,0.3c0.4,0.3,0.6,0.7,0.6,1.4
				c0,0.5-0.1,0.8-0.4,1.1c-0.3,0.3-0.7,0.5-1.3,0.6l1.1,1.5c0.2,0.3,0.4,0.5,0.5,0.6c0.1,0.1,0.3,0.2,0.4,0.2v0.1h-2.5v-0.1
				c0.2,0,0.3-0.1,0.3-0.2c0-0.1-0.1-0.2-0.2-0.4l-1.2-1.7H105z M105,27.3h2.1c0.3,0,0.6,0,0.7-0.1c0.2-0.1,0.3-0.3,0.3-0.6
				c0-0.2-0.1-0.4-0.2-0.5c-0.2-0.1-0.4-0.1-0.8-0.1H105V27.3z"/>
		</g>
		<g>
			<path fill="#115495" d="M43.7,17.8c2.2,0,4,0.6,5.3,1.8c1.4,1.3,2.1,2.9,2.1,4.9c0,1.2-0.3,2.4-1,3.4C48.8,30,46.7,31,43.7,31
				c-2.2,0-4-0.6-5.3-1.8c-0.7-0.6-1.2-1.4-1.6-2.3c-0.3-0.8-0.5-1.6-0.5-2.5c0-1.3,0.3-2.4,1-3.5C38.6,18.9,40.7,17.9,43.7,17.8z
				 M43.7,20c-1.2,0-2.2,0.4-3,1.1c-1,0.9-1.4,2-1.4,3.3s0.5,2.5,1.4,3.3c0.8,0.7,1.8,1.1,3.1,1.1c1.2,0,2.2-0.4,3-1.1
				c0.5-0.4,0.8-1,1.1-1.6c0.2-0.6,0.3-1.1,0.3-1.7c0-1.4-0.5-2.6-1.4-3.4C46,20.4,44.9,20,43.7,20z"/>
		</g>
	</g>
	<g>
		<g>
			<path fill="#007161" d="M28.7,14c0-0.2,0-0.3,0-0.3c-0.1-1.6-1.6-1.5-1.6-1.5c-1.1,0.1-1.5,1.2-1.5,1.6c0,0.1,0,0.3,0.1,0.5
				c0,0,0,0,0,0.1c-0.1,0.4,0,0.8,0.1,1.2c0.1,0.5,0,0.9,0,1.4c0,0.4,0.1,0.8,0.1,1.2c0,0.4,0.1,0.7,0.1,1.1
				c0.1,0.7,0.2,1.5,0.3,2.2c0,0.1,0,0.2,0.1,0.4c0,0.1,0,0.2,0,0.2c0.1,0.6,0.2,1.3,0.3,1.9c0.1,0.5,0.1,1.1,0.2,1.6
				c0.1,0.5,0.1,0.9,0.2,1.4c0.1,1,0.1,1.9,0.1,2.9c0,0.5,0,1.1,0.2,1.6c0.2-0.5,0.3-1,0.4-1.6c0-0.3,0.1-0.7,0.1-1
				c0.1-0.7,0.2-1.3,0.4-2c0-0.1,0-0.2,0-0.3c0-0.1,0-0.2,0-0.3c0-0.2,0-0.4,0-0.5c0.1-1.5,0.3-2.9,0.2-4.4c0-0.3,0-0.6,0-0.9
				c0-0.1,0-0.3,0.1-0.4c0-0.1,0.1-0.1,0.1-0.2c0.1-0.2,0.1-0.4,0-0.6c0-0.3,0-0.6,0.1-0.9c0-0.2,0.1-0.5,0.1-0.7
				c0-0.5-0.1-0.9-0.2-1.4c0-0.1,0-0.3,0-0.4c0-0.1,0.1-0.2,0.2-0.3c0-0.1,0-0.2,0-0.4C28.9,15,28.9,14.4,28.7,14z"/>
			<circle fill="#007161" cx="27.3" cy="9.3" r="2.1"/>
		</g>
		<g>
			<path fill="#532380" d="M21.9,12.1c0-0.2,0-0.3,0-0.3c-0.1-1.6-1.6-1.5-1.6-1.5c-1.1,0.1-1.5,1.2-1.5,1.6c0,0.1,0,0.3,0.1,0.5
				c0,0,0,0,0,0.1c-0.1,0.4,0,0.8,0.1,1.2c0.1,0.5,0,0.9,0,1.4c0,0.4,0.1,0.8,0.1,1.2c0,0.4,0.1,0.7,0.1,1.1
				c0.1,0.7,0.2,1.5,0.3,2.2c0,0.1,0,0.2,0.1,0.4c0,0.1,0,0.2,0,0.2c0.1,0.6,0.2,1.3,0.3,1.9c0.1,0.5,0.1,1.1,0.2,1.6
				c0.1,0.5,0.1,0.9,0.2,1.4c0.1,1,0.1,1.9,0.1,2.9c0,0.5,0,1.1,0.2,1.6c0.2-0.5,0.3-1,0.4-1.6c0-0.3,0.1-0.7,0.1-1
				c0.1-0.7,0.2-1.3,0.4-2c0-0.1,0-0.2,0-0.3c0-0.1,0-0.2,0-0.3c0-0.2,0-0.4,0-0.5c0.1-1.5,0.3-2.9,0.2-4.4c0-0.3,0-0.6,0-0.9
				c0-0.1,0-0.3,0.1-0.4c0-0.1,0.1-0.1,0.1-0.2c0.1-0.2,0.1-0.4,0-0.6c0-0.3,0-0.6,0.1-0.9c0-0.2,0.1-0.5,0.1-0.7
				c0-0.5-0.1-0.9-0.2-1.4c0-0.1,0-0.3,0-0.4c0-0.1,0.1-0.2,0.2-0.3c0-0.1,0-0.2,0-0.4C22.2,13.1,22.2,12.5,21.9,12.1z"/>
			<circle fill="#532380" cx="20.5" cy="7.5" r="2.1"/>
		</g>
		<g>
			<path fill="#933C06" d="M15.1,13.9c0-0.2,0-0.3,0-0.3c-0.1-1.6-1.6-1.5-1.6-1.5c-1.1,0.1-1.5,1.2-1.5,1.6c0,0.1,0,0.3,0.1,0.5
				c0,0,0,0,0,0.1c-0.1,0.4,0,0.8,0.1,1.2c0.1,0.5,0,0.9,0,1.4c0,0.4,0.1,0.8,0.1,1.2c0,0.4,0.1,0.7,0.1,1.1
				c0.1,0.7,0.2,1.5,0.3,2.2c0,0.1,0,0.2,0.1,0.4c0,0.1,0,0.2,0,0.2c0.1,0.6,0.2,1.3,0.3,1.9c0.1,0.5,0.1,1.1,0.2,1.6
				c0.1,0.5,0.1,0.9,0.2,1.4c0.1,1,0.1,1.9,0.1,2.9c0,0.5,0,1.1,0.2,1.6c0.2-0.5,0.3-1,0.4-1.6c0-0.3,0.1-0.7,0.1-1
				c0.1-0.7,0.2-1.3,0.4-2c0-0.1,0-0.2,0-0.3c0-0.1,0-0.2,0-0.3c0-0.2,0-0.4,0-0.5c0.1-1.5,0.3-2.9,0.2-4.4c0-0.3,0-0.6,0-0.9
				c0-0.1,0-0.3,0.1-0.4c0-0.1,0.1-0.1,0.1-0.2c0.1-0.2,0.1-0.4,0-0.6c0-0.3,0-0.6,0.1-0.9c0-0.2,0.1-0.5,0.1-0.7
				c0-0.5-0.1-0.9-0.2-1.4c0-0.1,0-0.3,0-0.4c0-0.1,0.1-0.2,0.2-0.3c0-0.1,0-0.2,0-0.4C15.3,15,15.3,14.3,15.1,13.9z"/>
			<circle fill="#933C06" cx="13.7" cy="9.3" r="2.1"/>
		</g>
		<path fill="#234F8E" d="M20.8,3.3c-4.8,0-9.5,0-14.3,0C5.7,3.3,4.8,3.4,4,3.7c-1.8,0.8-2.6,2-2.5,4c0.1,1.8,1.1,3.2,2.9,3.7
			c1.7,0.6,3.5-0.3,4.1-1.9c0.5-1.2,0-2.6-1.1-3.1C6.4,5.8,5.3,6.1,4.8,7c-0.5,0.8-0.2,1.4,1.1,2c0.4,0.2,1,0.3,0.9,0.9
			c-0.2,0.6-0.7,0.7-1.3,0.6C4,10.2,3.1,9,3.2,7.6c0.1-1.5,1.2-2.7,2.7-2.9c2.9-0.4,5,2.5,3.9,5.4c-1.3,3.4-6,4-8.5,0.9
			c-2.7-3.3-1.1-8,3.1-9c1-0.2,2.1-0.3,3.2-0.3c8.7,0,17.5,0,26.2,0c1.5,0,3.1,0.1,4.5,0.7c2.6,1.1,3.8,3.6,3.1,6.4
			c-0.7,2.7-3.2,4.4-5.8,4.1c-2-0.2-3.6-1.7-3.9-3.6c-0.4-1.8,0.4-3.4,2-4.3c1.3-0.6,2.5-0.6,3.7,0.3c1,0.8,1.4,1.8,1.2,3
			c-0.3,1.3-1.5,2.3-2.7,2.1c-0.4-0.1-0.7-0.2-0.8-0.7c0-0.4,0.2-0.5,0.5-0.6c0.7-0.2,1.5-0.4,1.5-1.4c0-1.3-1.4-2.1-2.7-1.4
			c-1.7,0.8-1.8,3.4-0.1,4.6c1.4,1.1,3.5,0.8,4.8-0.5c1.7-1.7,1.7-5.7-1.3-6.7c-0.8-0.3-1.6-0.5-2.5-0.5C30.4,3.3,25.6,3.3,20.8,3.3
			C20.8,3.3,20.8,3.3,20.8,3.3z"/>
	</g>
</g>
</svg>
