<?xml version="1.0" encoding="utf-8"?>
<!-- Generator: Adobe Illustrator 21.0.2, SVG Export Plug-In . SVG Version: 6.00 Build 0)  -->
<svg version="1.2" baseProfile="tiny" id="Layer_1" xmlns="http://www.w3.org/2000/svg" xmlns:xlink="http://www.w3.org/1999/xlink"
	 x="0px" y="0px" viewBox="0 0 233.4 73" overflow="scroll" xml:space="preserve">
<g id="vision_x5F_21_x5F_viriginia">
	<g>
		<g>
			<path fill="#004C6D" d="M94.7,57.3l-0.2,1.4c-0.4-0.2-0.7-0.3-1-0.3c-0.8,0-1.2,0.6-1.3,1.7h1.1l-0.2,1.3H92l-1,7.3h-1.8l1-7.3
				H89l0.2-1.3h1.2c0.1-1,0.4-1.8,0.9-2.3c0.5-0.5,1.1-0.8,1.9-0.8C93.7,57,94.2,57.1,94.7,57.3z"/>
			<path fill="#004C6D" d="M97,60c0.9,0,1.6,0.3,2.1,0.8c0.6,0.5,0.8,1.2,0.8,2c0,1-0.3,1.8-1,2.4c-0.7,0.7-1.5,1-2.4,1
				c-0.9,0-1.6-0.3-2.1-0.8c-0.6-0.6-0.9-1.2-0.9-2c0-0.9,0.3-1.7,1-2.3C95.2,60.3,96,60,97,60z M96.5,64.8c0.5,0,0.8-0.2,1.1-0.6
				c0.3-0.4,0.4-0.9,0.4-1.4c0-0.4-0.1-0.7-0.3-1s-0.5-0.4-0.9-0.4c-0.5,0-0.9,0.2-1.1,0.6c-0.3,0.4-0.4,0.9-0.4,1.3
				c0,0.4,0.1,0.7,0.4,1C96,64.6,96.2,64.8,96.5,64.8z"/>
			<path fill="#004C6D" d="M103.4,60.1l-0.1,0.9l0,0c0.5-0.7,1-1,1.5-1c0.3,0,0.7,0.2,1.1,0.7l-0.8,1.6c-0.3-0.4-0.6-0.6-0.8-0.6
				c-0.2,0-0.5,0.1-0.7,0.4c-0.2,0.2-0.4,0.4-0.4,0.5l-0.5,3.6h-1.8l0.8-6H103.4z"/>
			<path fill="#004C6D" d="M118,57.3l-0.3,1.7c-0.7-0.2-1.4-0.3-2.2-0.3c-1.2,0-2.2,0.3-2.8,1c-0.7,0.7-1,1.5-1,2.5
				c0,0.7,0.2,1.3,0.7,1.8c0.5,0.4,1.1,0.7,1.9,0.7c1,0,2.1-0.4,3.3-1.1l-0.3,2c-1.1,0.5-2.1,0.7-3.2,0.7c-1.3,0-2.4-0.4-3.2-1.1
				c-0.8-0.8-1.2-1.8-1.2-3c0-1.5,0.5-2.7,1.6-3.7s2.5-1.4,4.2-1.4C116.3,57,117.2,57.1,118,57.3z"/>
			<path fill="#004C6D" d="M121.5,57.1l-0.5,3.7c0.6-0.5,1.3-0.8,2-0.8c0.5,0,0.9,0.2,1.2,0.5c0.3,0.3,0.4,0.7,0.4,1.3
				c0,0.1,0,0.3,0,0.5l-0.5,3.9h-1.8l0.5-3.8c0-0.2,0-0.4-0.1-0.6c-0.1-0.2-0.3-0.2-0.4-0.2c-0.4,0-0.9,0.3-1.5,0.8l-0.5,3.9h-1.8
				l1.3-9H121.5z"/>
			<path fill="#004C6D" d="M128.3,60.1l-0.8,6h-1.8l0.8-6H128.3z M126.7,58.4c0-0.3,0.1-0.5,0.3-0.7c0.2-0.2,0.4-0.3,0.7-0.3
				c0.3,0,0.5,0.1,0.7,0.3c0.2,0.2,0.3,0.4,0.3,0.7c0,0.3-0.1,0.5-0.3,0.7c-0.2,0.2-0.4,0.3-0.7,0.3c-0.3,0-0.5-0.1-0.7-0.3
				C126.8,58.9,126.7,58.7,126.7,58.4z"/>
			<path fill="#004C6D" d="M132.2,57.1l-1.3,9h-1.8l1.3-9H132.2z"/>
			<path fill="#004C6D" d="M139.2,57.1L138,66c-0.8,0.1-1.4,0.2-2.1,0.2c-1.1,0-1.9-0.3-2.5-0.8s-0.9-1.2-0.9-2.1
				c0-0.9,0.3-1.7,1-2.4c0.7-0.6,1.6-1,2.7-1c0.2,0,0.5,0,0.9,0.1l0.4-3H139.2z M136.4,64.7l0.4-3.1c-0.2,0-0.3,0-0.5,0
				c-0.6,0-1.1,0.2-1.5,0.5c-0.4,0.3-0.6,0.8-0.6,1.3c0,0.4,0.1,0.8,0.4,1c0.3,0.3,0.7,0.4,1.2,0.4C136,64.8,136.2,64.7,136.4,64.7z
				"/>
			<path fill="#004C6D" d="M142.1,60.1l-0.1,0.9l0,0c0.5-0.7,1-1,1.5-1c0.3,0,0.7,0.2,1.1,0.7l-0.8,1.6c-0.3-0.4-0.6-0.6-0.8-0.6
				c-0.2,0-0.5,0.1-0.7,0.4c-0.2,0.2-0.4,0.4-0.4,0.5l-0.5,3.6h-1.8l0.8-6H142.1z"/>
			<path fill="#004C6D" d="M149.9,63.3H146c0,0.5,0.1,0.8,0.3,1.1c0.3,0.3,0.6,0.4,1.1,0.4c0.5,0,1.2-0.2,2.2-0.6l-0.3,1.5
				c-0.8,0.3-1.5,0.4-2.1,0.4c-0.9,0-1.6-0.3-2.2-0.8c-0.5-0.5-0.8-1.2-0.8-2.1c0-0.9,0.3-1.7,0.9-2.3c0.6-0.6,1.4-1,2.3-1
				c0.8,0,1.4,0.2,1.9,0.7c0.5,0.5,0.7,1.1,0.7,1.8C150,62.8,150,63.1,149.9,63.3z M146.2,62.3h2.1c0-0.1,0-0.1,0-0.2
				c0-0.3-0.1-0.5-0.2-0.6c-0.2-0.2-0.4-0.2-0.6-0.2C146.8,61.2,146.4,61.6,146.2,62.3z"/>
			<path fill="#004C6D" d="M153.3,60.1l-0.1,0.7c0.7-0.5,1.3-0.8,2-0.8c0.5,0,0.9,0.2,1.2,0.5c0.3,0.3,0.4,0.8,0.4,1.4
				c0,0.2,0,0.4,0,0.5l-0.5,3.7h-1.8l0.5-3.6c0-0.1,0-0.2,0-0.3c0-0.6-0.2-0.9-0.6-0.9c-0.4,0-0.9,0.3-1.5,0.9l-0.5,3.8h-1.8l0.9-6
				H153.3z"/>
			<path fill="#004C6D" d="M167.9,60.2l-0.8,5.9h-1.8l0.1-0.6c-0.6,0.4-1.1,0.7-1.7,0.7c-0.6,0-1.1-0.2-1.5-0.7
				c-0.4-0.5-0.6-1.1-0.6-1.8c0-1.1,0.4-1.9,1.1-2.6c0.7-0.7,1.8-1,3.2-1C166.6,60,167.3,60.1,167.9,60.2z M165.6,64.3l0.4-2.8
				c-0.1,0-0.3,0-0.4,0c-0.7,0-1.3,0.2-1.6,0.6c-0.4,0.4-0.5,1-0.5,1.6c0,0.4,0.1,0.6,0.2,0.8c0.2,0.2,0.4,0.3,0.6,0.3
				C164.7,64.9,165.1,64.7,165.6,64.3z"/>
			<path fill="#004C6D" d="M171.4,60.1l-0.1,0.7c0.7-0.5,1.3-0.8,2-0.8c0.5,0,0.9,0.2,1.2,0.5c0.3,0.3,0.4,0.8,0.4,1.4
				c0,0.2,0,0.4,0,0.5l-0.5,3.7h-1.8l0.5-3.6c0-0.1,0-0.2,0-0.3c0-0.6-0.2-0.9-0.6-0.9c-0.4,0-0.9,0.3-1.5,0.9l-0.5,3.8h-1.8l0.9-6
				H171.4z"/>
			<path fill="#004C6D" d="M182.6,57.1l-1.2,8.9c-0.8,0.1-1.4,0.2-2.1,0.2c-1.1,0-1.9-0.3-2.5-0.8s-0.9-1.2-0.9-2.1
				c0-0.9,0.3-1.7,1-2.4c0.7-0.6,1.6-1,2.7-1c0.2,0,0.5,0,0.9,0.1l0.4-3H182.6z M179.8,64.7l0.4-3.1c-0.2,0-0.3,0-0.5,0
				c-0.6,0-1.1,0.2-1.5,0.5c-0.4,0.3-0.6,0.8-0.6,1.3c0,0.4,0.1,0.8,0.4,1c0.3,0.3,0.7,0.4,1.2,0.4
				C179.4,64.8,179.6,64.7,179.8,64.7z"/>
			<path fill="#004C6D" d="M192.6,57.1l-3.4,5.2l-0.5,3.8h-1.9l0.5-3.8l-1.9-5.2h1.9l1.2,3.5l2.1-3.5H192.6z"/>
			<path fill="#004C6D" d="M194.7,60c0.9,0,1.6,0.3,2.1,0.8c0.6,0.5,0.8,1.2,0.8,2c0,1-0.3,1.8-1,2.4c-0.7,0.7-1.5,1-2.4,1
				c-0.9,0-1.6-0.3-2.1-0.8c-0.6-0.6-0.9-1.2-0.9-2c0-0.9,0.3-1.7,1-2.3C192.9,60.3,193.7,60,194.7,60z M194.3,64.8
				c0.5,0,0.8-0.2,1.1-0.6c0.3-0.4,0.4-0.9,0.4-1.4c0-0.4-0.1-0.7-0.3-1s-0.5-0.4-0.9-0.4c-0.5,0-0.9,0.2-1.1,0.6
				c-0.3,0.4-0.4,0.9-0.4,1.3c0,0.4,0.1,0.7,0.4,1C193.7,64.6,194,64.8,194.3,64.8z"/>
			<path fill="#004C6D" d="M205.1,60.1l-0.8,6h-1.8l0.1-0.7c-0.6,0.5-1.3,0.8-1.9,0.8c-0.6,0-1-0.2-1.3-0.5
				c-0.3-0.3-0.5-0.8-0.5-1.3c0-0.1,0-0.3,0-0.5l0.5-3.8h1.8l-0.4,3.2c0,0.3-0.1,0.5-0.1,0.7c0,0.6,0.2,0.9,0.5,0.9
				c0.5,0,1-0.3,1.5-0.9l0.5-3.9H205.1z"/>
			<path fill="#004C6D" d="M209,58.8l-0.3,1.3h1.3l-0.2,1.3h-1.3l-0.3,1.9c0,0.2,0,0.3,0,0.5c0,0.5,0.2,0.8,0.5,0.8
				c0.2,0,0.6-0.1,1-0.4v1.6c-0.5,0.3-1,0.4-1.5,0.4c-0.6,0-1-0.2-1.4-0.6c-0.3-0.4-0.5-0.8-0.5-1.4c0-0.2,0-0.4,0.1-0.5l0.4-2.3
				h-1.2l0.2-1.3h1.2l0.2-1.3H209z"/>
			<path fill="#004C6D" d="M213.5,57.1l-0.5,3.7c0.6-0.5,1.3-0.8,2-0.8c0.5,0,0.9,0.2,1.2,0.5c0.3,0.3,0.4,0.7,0.4,1.3
				c0,0.1,0,0.3,0,0.5l-0.5,3.9h-1.8l0.5-3.8c0-0.2,0-0.4-0.1-0.6c-0.1-0.2-0.3-0.2-0.4-0.2c-0.4,0-0.9,0.3-1.5,0.8l-0.5,3.9h-1.8
				l1.3-9H213.5z"/>
		</g>
		<g>
			<path fill="#004C6D" d="M99.8,42l-1,7.5h4.1l-0.2,1.5h-6l1.3-9H99.8z"/>
			<path fill="#004C6D" d="M106.1,45l-0.8,6h-1.8l0.8-6H106.1z M104.5,43.3c0-0.3,0.1-0.5,0.3-0.7c0.2-0.2,0.4-0.3,0.7-0.3
				c0.3,0,0.5,0.1,0.7,0.3c0.2,0.2,0.3,0.4,0.3,0.7c0,0.3-0.1,0.5-0.3,0.7c-0.2,0.2-0.4,0.3-0.7,0.3c-0.3,0-0.5-0.1-0.7-0.3
				C104.6,43.8,104.5,43.6,104.5,43.3z"/>
			<path fill="#004C6D" d="M109.5,45l-0.1,0.7c0.7-0.5,1.3-0.8,2-0.8c0.5,0,0.9,0.2,1.2,0.5c0.3,0.3,0.4,0.8,0.4,1.4
				c0,0.2,0,0.4,0,0.5l-0.5,3.7h-1.8l0.5-3.6c0-0.1,0-0.2,0-0.3c0-0.6-0.2-0.9-0.6-0.9c-0.4,0-0.9,0.3-1.5,0.9l-0.5,3.8h-1.8l0.9-6
				H109.5z"/>
			<path fill="#004C6D" d="M117.2,42l-0.8,5.6l2.2-2.6h2.2l-2.4,2.8l2.3,3.1h-2.2l-2.2-2.9l-0.4,2.9h-1.8l1.3-9H117.2z"/>
			<path fill="#004C6D" d="M123.5,45l-0.8,6h-1.8l0.8-6H123.5z M121.9,43.3c0-0.3,0.1-0.5,0.3-0.7c0.2-0.2,0.4-0.3,0.7-0.3
				c0.3,0,0.5,0.1,0.7,0.3c0.2,0.2,0.3,0.4,0.3,0.7c0,0.3-0.1,0.5-0.3,0.7c-0.2,0.2-0.4,0.3-0.7,0.3c-0.3,0-0.5-0.1-0.7-0.3
				C122,43.8,121.9,43.6,121.9,43.3z"/>
			<path fill="#004C6D" d="M126.9,45l-0.1,0.7c0.7-0.5,1.3-0.8,2-0.8c0.5,0,0.9,0.2,1.2,0.5c0.3,0.3,0.4,0.8,0.4,1.4
				c0,0.2,0,0.4,0,0.5l-0.5,3.7h-1.8l0.5-3.6c0-0.1,0-0.2,0-0.3c0-0.6-0.2-0.9-0.6-0.9c-0.4,0-0.9,0.3-1.5,0.9l-0.5,3.8h-1.8l0.9-6
				H126.9z"/>
			<path fill="#004C6D" d="M137.9,45l-0.2,1.3h-1c0.2,0.3,0.2,0.6,0.2,0.9c0,0.6-0.2,1.1-0.7,1.6c-0.5,0.4-1.1,0.6-1.8,0.6
				c-0.4,0-0.7,0-0.8,0.1c-0.2,0-0.2,0.1-0.2,0.3c0,0.1,0.1,0.1,0.2,0.2c0.1,0.1,0.5,0.1,1.3,0.3c0.8,0.1,1.3,0.3,1.6,0.7
				c0.3,0.3,0.5,0.7,0.5,1.2c0,1.3-1,2-3.1,2c-0.9,0-1.7-0.1-2.1-0.4c-0.5-0.3-0.7-0.6-0.7-1.1c0-0.6,0.5-1,1.5-1.3
				c-0.6-0.3-0.8-0.6-0.8-1.1c0-0.6,0.4-0.9,1.2-1.1c-0.7-0.4-1-1-1-1.7c0-0.6,0.2-1.1,0.7-1.6c0.5-0.5,1.1-0.7,1.9-0.7H137.9z
				 M135.3,52.3c0-0.3-0.3-0.5-0.8-0.6l-0.8-0.2c-0.2,0-0.4,0.1-0.7,0.2c-0.3,0.1-0.4,0.3-0.4,0.5c0,0.4,0.4,0.6,1.3,0.6
				c0.5,0,0.9,0,1.1-0.1C135.2,52.6,135.3,52.5,135.3,52.3z M134.3,48.3c0.7,0,1-0.4,1-1.3c0-0.3-0.1-0.5-0.2-0.6
				c-0.1-0.2-0.4-0.2-0.6-0.2c-0.7,0-1,0.4-1,1.3C133.5,48.1,133.8,48.3,134.3,48.3z"/>
			<path fill="#004C6D" d="M147.6,42.6l-0.3,1.6c-0.3-0.2-0.7-0.4-1.1-0.6c-0.4-0.1-0.8-0.2-1.1-0.2c-0.4,0-0.7,0.1-0.9,0.3
				c-0.2,0.2-0.4,0.4-0.4,0.7c0,0.2,0.1,0.3,0.2,0.5c0.1,0.2,0.6,0.5,1.3,0.9c0.7,0.4,1.2,0.9,1.5,1.3s0.4,0.8,0.4,1.3
				c0,0.8-0.3,1.5-0.8,2c-0.5,0.5-1.3,0.8-2.2,0.8c-1.2,0-2.2-0.3-3.1-0.9l0.3-1.6c0.4,0.3,0.8,0.5,1.3,0.7c0.5,0.2,0.9,0.3,1.3,0.3
				c0.4,0,0.7-0.1,0.9-0.3c0.2-0.2,0.4-0.4,0.4-0.7c0-0.2-0.1-0.4-0.2-0.6s-0.6-0.5-1.3-1c-0.7-0.4-1.2-0.9-1.4-1.2
				c-0.2-0.4-0.3-0.8-0.3-1.2c0-0.8,0.3-1.4,0.9-1.9c0.6-0.5,1.4-0.8,2.3-0.8S146.8,42.1,147.6,42.6z"/>
			<path fill="#004C6D" d="M154.5,45l-4.4,9h-1.9l1.8-3.6l-1.9-5.4h1.8l1.2,3.5l1.6-3.5H154.5z"/>
			<path fill="#004C6D" d="M159,45.4l-0.1,1.4c-0.3-0.2-0.6-0.3-1-0.4c-0.3-0.1-0.6-0.1-0.8-0.1c-0.3,0-0.4,0.1-0.4,0.3
				s0.2,0.4,0.7,0.8c0.5,0.4,0.9,0.7,1,1c0.2,0.3,0.2,0.5,0.2,0.8c0,0.5-0.2,1-0.6,1.3c-0.4,0.4-1,0.5-1.6,0.5
				c-0.7,0-1.4-0.2-2.1-0.5l0.2-1.3c0.7,0.3,1.3,0.4,1.6,0.4c0.4,0,0.6-0.1,0.6-0.3c0-0.2-0.3-0.5-0.8-0.9c-0.5-0.4-0.9-0.7-1-0.9
				c-0.2-0.2-0.2-0.5-0.2-0.7c0-0.6,0.2-1,0.6-1.4c0.4-0.4,1-0.5,1.6-0.5C157.7,44.9,158.4,45.1,159,45.4z"/>
			<path fill="#004C6D" d="M162.9,43.7l-0.3,1.3h1.3l-0.2,1.3h-1.3l-0.3,1.9c0,0.2,0,0.3,0,0.5c0,0.5,0.2,0.8,0.5,0.8
				c0.2,0,0.6-0.1,1-0.4v1.6c-0.5,0.3-1,0.4-1.5,0.4c-0.6,0-1-0.2-1.4-0.6c-0.3-0.4-0.5-0.8-0.5-1.4c0-0.2,0-0.4,0.1-0.5l0.4-2.3
				h-1.2l0.2-1.3h1.2l0.2-1.3H162.9z"/>
			<path fill="#004C6D" d="M170.2,48.2h-3.9c0,0.5,0.1,0.8,0.3,1.1c0.3,0.3,0.6,0.4,1.1,0.4c0.5,0,1.2-0.2,2.2-0.6l-0.3,1.5
				c-0.8,0.3-1.5,0.4-2.1,0.4c-0.9,0-1.6-0.3-2.2-0.8c-0.5-0.5-0.8-1.2-0.8-2.1c0-0.9,0.3-1.7,0.9-2.3c0.6-0.6,1.4-1,2.3-1
				c0.8,0,1.4,0.2,1.9,0.7c0.5,0.5,0.7,1.1,0.7,1.8C170.3,47.7,170.3,47.9,170.2,48.2z M166.4,47.2h2.1c0-0.1,0-0.1,0-0.2
				c0-0.3-0.1-0.5-0.2-0.6c-0.2-0.2-0.4-0.2-0.6-0.2C167.1,46.1,166.7,46.5,166.4,47.2z"/>
			<path fill="#004C6D" d="M173.7,45l-0.1,0.8l0,0c0.6-0.6,1.2-0.9,1.9-0.9c0.8,0,1.3,0.4,1.5,1.1c0.8-0.7,1.5-1.1,2.2-1.1
				c0.5,0,1,0.2,1.3,0.5s0.5,0.8,0.5,1.4c0,0.1,0,0.3,0,0.5l-0.5,3.7h-1.8l0.5-3.4c0-0.2,0-0.3,0-0.5c0-0.6-0.2-0.8-0.5-0.8
				c-0.4,0-0.9,0.3-1.5,0.9l-0.5,3.8h-1.8l0.5-3.4c0-0.2,0-0.4,0-0.5c0-0.5-0.2-0.8-0.6-0.8c-0.4,0-0.9,0.3-1.4,0.9l-0.5,3.8h-1.8
				l0.8-6H173.7z"/>
			<path fill="#004C6D" d="M186.3,45.4l-0.1,1.4c-0.3-0.2-0.6-0.3-1-0.4c-0.3-0.1-0.6-0.1-0.8-0.1c-0.3,0-0.4,0.1-0.4,0.3
				s0.2,0.4,0.7,0.8c0.5,0.4,0.9,0.7,1,1c0.2,0.3,0.2,0.5,0.2,0.8c0,0.5-0.2,1-0.6,1.3c-0.4,0.4-1,0.5-1.6,0.5
				c-0.7,0-1.4-0.2-2.1-0.5l0.2-1.3c0.7,0.3,1.3,0.4,1.6,0.4c0.4,0,0.6-0.1,0.6-0.3c0-0.2-0.3-0.5-0.8-0.9c-0.5-0.4-0.9-0.7-1-0.9
				c-0.2-0.2-0.2-0.5-0.2-0.7c0-0.6,0.2-1,0.6-1.4c0.4-0.4,1-0.5,1.6-0.5C185.1,44.9,185.7,45.1,186.3,45.4z"/>
			<path fill="#004C6D" d="M193.2,44.9c0.9,0,1.6,0.3,2.1,0.8c0.6,0.5,0.8,1.2,0.8,2c0,1-0.3,1.8-1,2.4c-0.7,0.7-1.5,1-2.4,1
				c-0.9,0-1.6-0.3-2.1-0.8c-0.6-0.6-0.9-1.2-0.9-2c0-0.9,0.3-1.7,1-2.3C191.5,45.2,192.3,44.9,193.2,44.9z M192.8,49.6
				c0.5,0,0.8-0.2,1.1-0.6c0.3-0.4,0.4-0.9,0.4-1.4c0-0.4-0.1-0.7-0.3-1s-0.5-0.4-0.9-0.4c-0.5,0-0.9,0.2-1.1,0.6
				c-0.3,0.4-0.4,0.9-0.4,1.3c0,0.4,0.1,0.7,0.4,1C192.2,49.5,192.5,49.6,192.8,49.6z"/>
			<path fill="#004C6D" d="M202.8,42.2l-0.2,1.4c-0.4-0.2-0.7-0.3-1-0.3c-0.8,0-1.2,0.6-1.3,1.7h1.1l-0.2,1.3h-1.2l-1,7.3h-1.8
				l1-7.3h-1.2l0.2-1.3h1.2c0.1-1,0.4-1.8,0.9-2.3c0.5-0.5,1.1-0.8,1.9-0.8C201.8,41.9,202.3,42,202.8,42.2z"/>
			<path fill="#004C6D" d="M213.9,42.2l-0.3,1.7c-0.7-0.2-1.4-0.3-2.2-0.3c-1.2,0-2.2,0.3-2.8,1c-0.7,0.7-1,1.5-1,2.5
				c0,0.7,0.2,1.3,0.7,1.8c0.5,0.4,1.1,0.7,1.9,0.7c1,0,2.1-0.4,3.3-1.1l-0.3,2c-1.1,0.5-2.1,0.7-3.2,0.7c-1.3,0-2.4-0.4-3.2-1.1
				c-0.8-0.8-1.2-1.8-1.2-3c0-1.5,0.5-2.7,1.6-3.7s2.5-1.4,4.2-1.4C212.2,41.9,213,42,213.9,42.2z"/>
			<path fill="#004C6D" d="M220.8,45.1l-0.8,5.9h-1.8l0.1-0.6c-0.6,0.4-1.1,0.7-1.7,0.7c-0.6,0-1.1-0.2-1.5-0.7
				c-0.4-0.5-0.6-1.1-0.6-1.8c0-1.1,0.4-1.9,1.1-2.6c0.7-0.7,1.8-1,3.2-1C219.4,44.9,220.1,44.9,220.8,45.1z M218.4,49.2l0.4-2.8
				c-0.1,0-0.3,0-0.4,0c-0.7,0-1.3,0.2-1.6,0.6c-0.4,0.4-0.5,1-0.5,1.6c0,0.4,0.1,0.6,0.2,0.8c0.2,0.2,0.4,0.3,0.6,0.3
				C217.5,49.8,218,49.6,218.4,49.2z"/>
			<path fill="#004C6D" d="M224.1,45l-0.1,0.9l0,0c0.5-0.7,1-1,1.5-1c0.3,0,0.7,0.2,1.1,0.7l-0.8,1.6c-0.3-0.4-0.6-0.6-0.8-0.6
				c-0.2,0-0.5,0.1-0.7,0.4c-0.2,0.2-0.4,0.4-0.4,0.5l-0.5,3.6h-1.8l0.8-6H224.1z"/>
			<path fill="#004C6D" d="M232.2,48.2h-3.9c0,0.5,0.1,0.8,0.3,1.1c0.3,0.3,0.6,0.4,1.1,0.4c0.5,0,1.2-0.2,2.2-0.6l-0.3,1.5
				c-0.8,0.3-1.5,0.4-2.1,0.4c-0.9,0-1.6-0.3-2.2-0.8c-0.5-0.5-0.8-1.2-0.8-2.1c0-0.9,0.3-1.7,0.9-2.3c0.6-0.6,1.4-1,2.3-1
				c0.8,0,1.4,0.2,1.9,0.7c0.5,0.5,0.7,1.1,0.7,1.8C232.2,47.7,232.2,47.9,232.2,48.2z M228.4,47.2h2.1c0-0.1,0-0.1,0-0.2
				c0-0.3-0.1-0.5-0.2-0.6c-0.2-0.2-0.4-0.2-0.6-0.2C229.1,46.1,228.7,46.5,228.4,47.2z"/>
		</g>
		<g>
			<path fill="#BF1E2E" d="M110.7,27.4l-4.2,9.1h-1l-4.4-9.1h2.4l2.4,5.1l2.3-5.1H110.7z"/>
			<path fill="#BF1E2E" d="M111.4,28.3c0-0.3,0.1-0.5,0.3-0.7c0.2-0.2,0.5-0.3,0.7-0.3c0.3,0,0.5,0.1,0.7,0.3
				c0.2,0.2,0.3,0.5,0.3,0.7c0,0.3-0.1,0.5-0.3,0.7c-0.2,0.2-0.5,0.3-0.7,0.3c-0.3,0-0.5-0.1-0.7-0.3
				C111.5,28.8,111.4,28.6,111.4,28.3z M113.4,30.3v6.1h-1.9v-6.1H113.4z"/>
			<path fill="#BF1E2E" d="M117,30.3V32h0c0.6-1.2,1.2-1.9,1.9-1.9c0.4,0,0.8,0.2,1.3,0.6l-0.5,1.7c-0.5-0.3-0.9-0.5-1.1-0.5
				c-0.4,0-0.8,0.3-1.1,0.8c-0.3,0.5-0.5,0.9-0.5,1v2.6h-1.9v-6.1H117z"/>
			<path fill="#BF1E2E" d="M127.1,30.3v1.3h-0.9c0.2,0.3,0.3,0.7,0.3,1c0,0.5-0.2,0.9-0.5,1.3c-0.4,0.4-0.9,0.6-1.6,0.7
				c-0.7,0.1-1.1,0.1-1.2,0.2s-0.1,0.2-0.1,0.3s0.1,0.2,0.2,0.3c0.1,0.1,0.6,0.1,1.4,0.2s1.4,0.3,1.7,0.7c0.3,0.4,0.5,0.8,0.5,1.2
				c0,0.7-0.3,1.2-0.8,1.5c-0.6,0.3-1.3,0.5-2.4,0.5c-1.1,0-1.9-0.2-2.4-0.5c-0.5-0.3-0.8-0.7-0.8-1.3c0-0.7,0.5-1.3,1.6-1.5
				c-0.5-0.1-0.7-0.4-0.7-0.8c0-0.4,0.4-0.8,1.1-0.9c-0.5-0.1-0.9-0.3-1.2-0.6c-0.3-0.3-0.5-0.8-0.5-1.2c0-0.6,0.2-1.1,0.7-1.5
				c0.5-0.4,1.1-0.7,2-0.7H127.1z M123.8,38.3c0.4,0,0.7-0.1,1-0.2c0.3-0.2,0.4-0.3,0.4-0.5c0-0.4-0.5-0.7-1.5-0.7
				c-0.5,0-0.8,0.1-1.1,0.2c-0.3,0.1-0.4,0.3-0.4,0.5C122.3,38,122.8,38.3,123.8,38.3z M123.7,31.4c-0.3,0-0.6,0.1-0.8,0.3
				c-0.2,0.2-0.3,0.5-0.3,0.8c0,0.3,0.1,0.6,0.3,0.8s0.5,0.3,0.8,0.3s0.6-0.1,0.8-0.3c0.2-0.2,0.3-0.5,0.3-0.8
				c0-0.3-0.1-0.5-0.3-0.7C124.3,31.5,124,31.4,123.7,31.4z"/>
			<path fill="#BF1E2E" d="M128,28.3c0-0.3,0.1-0.5,0.3-0.7c0.2-0.2,0.5-0.3,0.7-0.3c0.3,0,0.5,0.1,0.7,0.3c0.2,0.2,0.3,0.5,0.3,0.7
				c0,0.3-0.1,0.5-0.3,0.7c-0.2,0.2-0.5,0.3-0.7,0.3c-0.3,0-0.5-0.1-0.7-0.3C128.1,28.8,128,28.6,128,28.3z M130,30.3v6.1h-1.9v-6.1
				H130z"/>
			<path fill="#BF1E2E" d="M133.6,30.3v0.9c0.6-0.7,1.2-1,2-1c0.6,0,1.2,0.2,1.6,0.6c0.4,0.4,0.6,1,0.6,1.7v3.9h-1.9v-3.7
				c0-0.8-0.3-1.2-0.9-1.2c-0.5,0-0.9,0.3-1.3,1v3.9h-1.9v-6.1H133.6z"/>
			<path fill="#BF1E2E" d="M139.3,28.3c0-0.3,0.1-0.5,0.3-0.7c0.2-0.2,0.5-0.3,0.7-0.3c0.3,0,0.5,0.1,0.7,0.3
				c0.2,0.2,0.3,0.5,0.3,0.7c0,0.3-0.1,0.5-0.3,0.7c-0.2,0.2-0.5,0.3-0.7,0.3c-0.3,0-0.5-0.1-0.7-0.3
				C139.4,28.8,139.3,28.6,139.3,28.3z M141.3,30.3v6.1h-1.9v-6.1H141.3z"/>
			<path fill="#BF1E2E" d="M149.1,34.8v1.1c-0.6,0.4-1.2,0.6-1.8,0.6c-0.6,0-1-0.2-1.1-0.7c-0.7,0.5-1.3,0.7-2,0.7
				c-0.5,0-0.9-0.1-1.2-0.4s-0.5-0.6-0.5-1c0-0.5,0.2-1,0.5-1.3s1.4-0.7,3.1-1.3c0-0.7-0.3-1-1.1-1c-0.8,0-1.6,0.3-2.2,1v-1.6
				c0.8-0.5,1.7-0.7,2.6-0.7c1.7,0,2.6,0.6,2.6,1.9v2.8c0,0.3,0.1,0.4,0.3,0.4C148.6,35.2,148.8,35.1,149.1,34.8z M146.2,34.9v-1.5
				c-0.6,0.2-1.1,0.4-1.3,0.6c-0.2,0.2-0.4,0.4-0.4,0.7c0,0.2,0.1,0.3,0.2,0.5c0.1,0.1,0.3,0.2,0.4,0.2
				C145.5,35.3,145.8,35.2,146.2,34.9z"/>
		</g>
		<g>
			<path fill="#BF1E2E" d="M118.7,3.7l-8.8,19.4h-2.1L98.6,3.7h5.2l5.1,10.9l4.8-10.9H118.7z"/>
			<path fill="#BF1E2E" d="M120,5.7c0-0.6,0.2-1.1,0.7-1.6c0.4-0.4,1-0.7,1.6-0.7c0.6,0,1.1,0.2,1.6,0.7c0.4,0.4,0.7,1,0.7,1.6
				c0,0.6-0.2,1.1-0.7,1.6c-0.4,0.4-1,0.7-1.6,0.7c-0.6,0-1.1-0.2-1.6-0.7C120.2,6.8,120,6.3,120,5.7z M124.2,9.9v12.9h-4.1V9.9
				H124.2z"/>
			<path fill="#BF1E2E" d="M135.9,10.6v2.9c-1.6-0.9-3-1.4-4.3-1.4c-1,0-1.5,0.3-1.5,1c0,0.2,0.1,0.3,0.3,0.5c0.2,0.2,1,0.5,2.4,1.1
				c1.4,0.5,2.3,1.2,2.9,1.9c0.6,0.7,0.8,1.5,0.8,2.3c0,1.3-0.5,2.4-1.4,3.1c-0.9,0.7-2.2,1.1-3.9,1.1c-1.7,0-3.3-0.3-4.6-0.9v-2.9
				c1.7,0.7,3.1,1.1,4.2,1.1c1.3,0,2-0.3,2-1c0-0.2-0.1-0.5-0.4-0.7c-0.2-0.2-1.1-0.6-2.4-1.1c-1.4-0.5-2.3-1.1-2.8-1.8
				c-0.5-0.6-0.8-1.4-0.8-2.2c0-1.2,0.5-2.1,1.5-2.9s2.3-1.1,3.9-1.1C133.3,9.6,134.7,10,135.9,10.6z"/>
			<path fill="#BF1E2E" d="M138.8,5.7c0-0.6,0.2-1.1,0.7-1.6c0.4-0.4,1-0.7,1.6-0.7c0.6,0,1.1,0.2,1.6,0.7c0.4,0.4,0.7,1,0.7,1.6
				c0,0.6-0.2,1.1-0.7,1.6c-0.4,0.4-1,0.7-1.6,0.7c-0.6,0-1.1-0.2-1.6-0.7C139.1,6.8,138.8,6.3,138.8,5.7z M143.1,9.9v12.9h-4.1V9.9
				H143.1z"/>
			<path fill="#BF1E2E" d="M152.5,9.6c2,0,3.7,0.6,5.2,1.8c1.4,1.2,2.1,2.8,2.1,5c0,2.1-0.7,3.8-2.1,4.9c-1.4,1.2-3.1,1.8-5.1,1.8
				c-2.1,0-3.9-0.6-5.3-1.9s-2-2.9-2-4.9c0-2,0.7-3.7,2.1-4.9S150.5,9.6,152.5,9.6z M152.5,20.7c1.9,0,2.9-1.5,2.9-4.4
				c0-2.8-1-4.2-2.9-4.2c-0.9,0-1.7,0.4-2.2,1.1c-0.5,0.7-0.8,1.8-0.8,3.2C149.6,19.2,150.6,20.7,152.5,20.7z"/>
			<path fill="#BF1E2E" d="M166.2,9.9v1.8c1.2-1.4,2.6-2.1,4.2-2.1c1.3,0,2.5,0.4,3.4,1.3c0.9,0.9,1.3,2.1,1.3,3.7v8.2H171v-7.9
				c0-1.7-0.7-2.6-2-2.6c-1,0-1.9,0.7-2.8,2.1v8.3h-4.1V9.9H166.2z"/>
			<path fill="#BF1E2E" d="M197.1,18.9v3.9h-12.6v-0.5c1.2-1.4,2.5-3.2,4-5.4s2.4-3.7,2.8-4.6c0.4-0.9,0.6-1.8,0.6-2.7
				c0-0.7-0.2-1.4-0.7-1.9c-0.5-0.5-1.1-0.8-1.8-0.8c-1.4,0-2.9,0.8-4.6,2.4v-4c1.9-1.2,3.7-1.8,5.4-1.8c1.9,0,3.4,0.5,4.4,1.5
				c1.1,1,1.6,2.3,1.6,4c0,2.3-1.7,5.7-5.2,10H197.1z"/>
			<path fill="#BF1E2E" d="M206,3.7v19.1h-4.2V3.7H206z"/>
		</g>
	</g>
	<g>
		<radialGradient id="SVGID_1_" cx="46.7105" cy="44.0253" r="38.0434" gradientUnits="userSpaceOnUse">
			<stop  offset="0.3713" style="stop-color:#EBC394"/>
			<stop  offset="1" style="stop-color:#F7941E"/>
		</radialGradient>
		<path fill="url(#SVGID_1_)" d="M73.8,16.4l-0.6,0.1c6,2.3,10.1,5.3,5.5,13.5C72.4,41,56.9,52.2,46.7,58.5
			C36.5,52.2,21.1,41,14.8,30c-4.6-8.2-0.6-11.2,5.5-13.5l-0.6-0.1c-12.7-1.5-24,2.4-16.6,16.5c9,16.7,34.6,34,43.6,39l0,0
			c9.1-5,34.7-22.3,43.6-39C97.8,18.8,86.5,14.9,73.8,16.4z"/>
		<radialGradient id="SVGID_2_" cx="46.9601" cy="28.1734" r="24.3538" gradientUnits="userSpaceOnUse">
			<stop  offset="0" style="stop-color:#00ACED"/>
			<stop  offset="1" style="stop-color:#15489F"/>
		</radialGradient>
		<path fill="url(#SVGID_2_)" d="M25,37.3c4.7,5,11.6,11,21.5,17.5c3.2-2.2,13.9-8.5,22.4-17.7C66.8,29.8,61.2,24,54,21.6
			c2.6-2.1,4.2-5.2,4.2-8.8c0-6.2-5-11.2-11.2-11.2s-11.2,5-11.2,11.2c0,3.5,1.7,6.7,4.2,8.8C32.7,24,27,29.9,25,37.3z"/>
		<radialGradient id="SVGID_3_" cx="67.719" cy="17.5465" r="13.6163" gradientUnits="userSpaceOnUse">
			<stop  offset="0" style="stop-color:#547F25"/>
			<stop  offset="1" style="stop-color:#8CC63F"/>
		</radialGradient>
		<path fill="url(#SVGID_3_)" d="M62.2,12.9c0,2.8-0.8,5.5-2.1,7.7c5.2,3,9.3,7.8,11.4,13.5c2.4-2.9,4.5-6,6.1-9.3
			c-1.5-3-3.8-6.4-9.1-8.6c1.6-1.6,2.6-3.8,2.6-6.3c0-4.9-4-8.9-8.9-8.9c-1.6,0-3.1,0.4-4.4,1.2C60.5,4.9,62.2,8.7,62.2,12.9z"/>
		<radialGradient id="SVGID_4_" cx="25.9287" cy="17.662" r="13.7999" gradientUnits="userSpaceOnUse">
			<stop  offset="0" style="stop-color:#DC1B25"/>
			<stop  offset="1" style="stop-color:#9D1421"/>
		</radialGradient>
		<path fill="url(#SVGID_4_)" d="M33.9,20.6c-1.3-2.3-2.1-4.9-2.1-7.7c0-4.2,1.7-7.9,4.4-10.7C34.8,1.5,33.3,1,31.7,1
			c-4.9,0-8.9,4-8.9,8.9c0,2.4,1,4.6,2.5,6.2c-1.4,0.5-6.4,2.7-9.6,8.7c0,0,1.6,3.7,6.6,9.5C24.5,28.5,28.6,23.6,33.9,20.6z"/>
	</g>
</g>
</svg>
